<?xml version="1.0" encoding="UTF-8"?>
<svg version="1.1" xmlns="http://www.w3.org/2000/svg" width="380" height="133">
<path d="M0 0 C125.4 0 250.8 0 380 0 C380 43.89 380 87.78 380 133 C254.6 133 129.2 133 0 133 C0 89.11 0 45.22 0 0 Z " fill="#FCFDFD" transform="translate(0,0)"/>
<path d="M0 0 C12.21 -0.04125 24.42 -0.0825 37 -0.125 C40.82207031 -0.14320801 44.64414062 -0.16141602 48.58203125 -0.18017578 C53.33398437 -0.18920898 53.33398437 -0.18920898 55.57495117 -0.19088745 C57.10425997 -0.19391186 58.63356473 -0.20084554 60.1628418 -0.21115112 C79.89765908 -0.33722059 100.93638576 0.24146836 116.375 14.21484375 C130.22842781 29.43363344 131.81509721 50.91729186 131.12109375 70.42919922 C130.35014782 86.79625699 126.07486829 103.51203323 113.9375 115.25 C101.46345689 125.62756527 84.88945181 129.195953 69.0234375 129.11352539 C68.25923492 129.11364593 67.49503235 129.11376646 66.70767212 129.11389065 C64.26341721 129.11315142 61.81924105 129.10556893 59.375 129.09765625 C57.85416704 129.09618376 56.33333357 129.09516494 54.8125 129.09460449 C49.20832554 129.08938724 43.60416198 129.07542599 38 129.0625 C25.46 129.041875 12.92 129.02125 0 129 C0 86.43 0 43.86 0 0 Z " fill="#025AA9" transform="translate(0,2)"/>
<path d="M0 0 C0 43.89 0 87.78 0 133 C-86.74926962 133 -86.74926962 133 -108.6796875 112.41015625 C-121.17001148 99.4362002 -126.56072449 81.91732531 -126.35131836 64.11132812 C-125.76887411 47.27523938 -120.97729415 32.32181869 -109 20 C-78.4434354 -7.361401 -39.23595108 0 0 0 Z " fill="#015AA8" transform="translate(380,0)"/>
<path d="M0 0 C34.32 0 68.64 0 104 0 C104 9.24 104 18.48 104 28 C84.86 28 65.72 28 46 28 C46 36.25 46 44.5 46 53 C65.14 53 84.28 53 104 53 C104 62.57 104 72.14 104 82 C84.86 82 65.72 82 46 82 C46 97.51 46 113.02 46 129 C30.82 129 15.64 129 0 129 C0 86.43 0 43.86 0 0 Z " fill="#015AA9" transform="translate(141,2)"/>
<path d="M0 0 C10.89 0 21.78 0 33 0 C33 22.11 33 44.22 33 67 C20.13 67 7.26 67 -6 67 C-6 78.55 -6 90.1 -6 102 C-15.04422059 104.26105515 -24.75018406 104.38826137 -32.91796875 99.5390625 C-40.17717043 94.17297345 -43.7905158 86.91034614 -45.5859375 78.13671875 C-47.13709832 66.38594388 -46.90843674 54.90584804 -39.859375 44.98828125 C-32.31721114 36.10607884 -23.53168169 30.97725002 -11.83544922 29.77807617 C-9.55253806 29.66032496 -7.28592331 29.62072858 -5 29.625 C-4.18200928 29.62516113 -3.36401855 29.62532227 -2.52124023 29.62548828 C7.05013803 29.80131366 16.39918401 31.699592 25 36 C25 25.44 25 14.88 25 4 C20.05 3.505 20.05 3.505 15 3 C12.28993005 2.65937653 9.58134581 2.30654716 6.875 1.9375 C4.92207031 1.67259766 4.92207031 1.67259766 2.9296875 1.40234375 C1.96289062 1.26957031 0.99609375 1.13679687 0 1 C0 0.67 0 0.34 0 0 Z " fill="#FDFDFE" transform="translate(347,0)"/>
<path d="M0 0 C8.46717411 -0.09061019 16.93396706 -0.16389303 25.40149689 -0.20724869 C29.33392955 -0.22806427 33.26601139 -0.25627007 37.19824219 -0.30175781 C40.99785274 -0.345433 44.79712727 -0.36918239 48.5969696 -0.37950897 C50.04177637 -0.38686174 51.48656614 -0.40121968 52.93122864 -0.42292023 C60.85769382 -0.5371775 67.21670973 -0.51740015 74 4 C81.92101565 11.74499308 83.07553368 21.35639549 83.24121094 32.01708984 C83.32682267 56.81119819 83.32682267 56.81119819 76 65 C67.19325524 73.34323188 58.39998399 71 46 71 C46 55.82 46 40.64 46 25 C30.82 25 15.64 25 0 25 C0 16.75 0 8.5 0 0 Z " fill="#FBFDFD" transform="translate(0,30)"/>
<path d="M0 0 C9.75373208 -0.02264987 19.5074465 -0.04097219 29.261199 -0.05181217 C33.79092326 -0.05701649 38.32062849 -0.06406933 42.8503418 -0.07543945 C47.22698718 -0.08635581 51.60361434 -0.09229528 55.98027229 -0.09487724 C57.64469756 -0.09671579 59.30912191 -0.10030585 60.97353935 -0.10573006 C77.02841094 -0.15594041 77.02841094 -0.15594041 85 1 C85 1.33 85 1.66 85 2 C83.35 2 81.7 2 80 2 C80 2.66 80 3.32 80 4 C81.32 4.33 82.64 4.66 84 5 C74.92818764 5.93387861 65.94165399 6.13353929 56.828125 6.09765625 C55.41038056 6.09578571 53.99263546 6.09436482 52.57489014 6.09336853 C48.88592672 6.08959336 45.19700417 6.07980728 41.50805664 6.06866455 C37.72673088 6.05834144 33.94539836 6.05384782 30.1640625 6.04882812 C22.77602109 6.03817928 15.38802153 6.02062452 8 6 C8 11.61 8 17.22 8 23 C7.34 23 6.68 23 6 23 C6 23.66 6 24.32 6 25 C22.5 25 39 25 56 25 C56 25.33 56 25.66 56 26 C39.17 26 22.34 26 5 26 C5 19.4 5 12.8 5 6 C4.34 6 3.68 6 3 6 C3.33 12.93 3.66 19.86 4 27 C23.8 27 43.6 27 64 27 C64 27.33 64 27.66 64 28 C42.88 28 21.76 28 0 28 C0 18.76 0 9.52 0 0 Z " fill="#035AAA" transform="translate(0,2)"/>
<path d="M0 0 C34.32 0 68.64 0 104 0 C104 9.24 104 18.48 104 28 C85.19 28 66.38 28 47 28 C46.505 27.01 46.505 27.01 46 26 C64.48 26.33 82.96 26.66 102 27 C101.67 19.41 101.34 11.82 101 4 C97.55226532 2.27613266 93.5733714 2.81872734 89.77685547 2.79467773 C88.31940257 2.77962865 88.31940257 2.77962865 86.83250618 2.76427555 C83.67742446 2.73281384 80.52233022 2.7080878 77.3671875 2.68359375 C75.42325422 2.66519738 73.47932505 2.64636109 71.53540039 2.6270752 C64.31531564 2.55854356 57.09515194 2.49854462 49.875 2.4375 C33.74625 2.293125 17.6175 2.14875 1 2 C1 43.58 1 85.16 1 128 C0.67 128 0.34 128 0 128 C0 85.76 0 43.52 0 0 Z " fill="#1B5BAF" transform="translate(141,2)"/>
<path d="M0 0 C9.75373208 -0.02264987 19.5074465 -0.04097219 29.261199 -0.05181217 C33.79092326 -0.05701649 38.32062849 -0.06406933 42.8503418 -0.07543945 C47.22698718 -0.08635581 51.60361434 -0.09229528 55.98027229 -0.09487724 C57.64469756 -0.09671579 59.30912191 -0.10030585 60.97353935 -0.10573006 C77.02841094 -0.15594041 77.02841094 -0.15594041 85 1 C85 1.33 85 1.66 85 2 C57.94 2 30.88 2 3 2 C3 10.25 3 18.5 3 27 C23.13 27 43.26 27 64 27 C64 27.33 64 27.66 64 28 C42.88 28 21.76 28 0 28 C0 18.76 0 9.52 0 0 Z " fill="#1F60AF" transform="translate(0,2)"/>
<path d="M0 0 C18.81 0 37.62 0 57 0 C56.01 0.33 55.02 0.66 54 1 C54 1.66 54 2.32 54 3 C37.83 3 21.66 3 5 3 C4.67 3.66 4.34 4.32 4 5 C3.34 4.67 2.68 4.34 2 4 C2 3.01 2 2.02 2 1 C1.34 0.67 0.68 0.34 0 0 Z " fill="#EFF4F6" transform="translate(187,84)"/>
<path d="M0 0 C1.98 0.99 1.98 0.99 4 2 C4.11586755 6.43728151 4.18714058 10.87417591 4.25 15.3125 C4.28351563 16.57513672 4.31703125 17.83777344 4.3515625 19.13867188 C4.36445313 20.34716797 4.37734375 21.55566406 4.390625 22.80078125 C4.41157227 23.91622314 4.43251953 25.03166504 4.45410156 26.1809082 C4 29 4 29 0 32 C0 21.44 0 10.88 0 0 Z " fill="#EAEEF1" transform="translate(372,4)"/>
<path d="M0 0 C0 1.98 0 3.96 0 6 C-11.88 6 -23.76 6 -36 6 C-36 5.67 -36 5.34 -36 5 C-34.29457031 4.83564453 -34.29457031 4.83564453 -32.5546875 4.66796875 C-23.81787624 3.78459905 -15.37169512 2.62775699 -6.8203125 0.5859375 C-4 0 -4 0 0 0 Z " fill="#E6EFF4" transform="translate(380,127)"/>
<path d="M0 0 C1.16660156 0.00322266 2.33320313 0.00644531 3.53515625 0.00976562 C4.75847656 0.01814453 5.98179687 0.02652344 7.2421875 0.03515625 C8.47324219 0.03966797 9.70429688 0.04417969 10.97265625 0.04882812 C14.02088142 0.06064295 17.06901064 0.07711597 20.1171875 0.09765625 C20.1171875 0.42765625 20.1171875 0.75765625 20.1171875 1.09765625 C19.17359375 1.2678125 18.23 1.43796875 17.2578125 1.61328125 C8.94546881 3.18227785 1.0815183 5.17591851 -6.8828125 8.09765625 C-6.8828125 7.43765625 -6.8828125 6.77765625 -6.8828125 6.09765625 C-7.5428125 5.76765625 -8.2028125 5.43765625 -8.8828125 5.09765625 C-8.5078125 3.16015625 -8.5078125 3.16015625 -7.8828125 1.09765625 C-5.16879956 -0.25935022 -3.03434934 -0.01472985 0 0 Z " fill="#F2F7F8" transform="translate(296.8828125,-0.09765625)"/>
<path d="M0 0 C0.33 0 0.66 0 1 0 C1 11.55 1 23.1 1 35 C-3.04451393 36.01112848 -6.40460767 36.16717795 -10.5625 36.1875 C-11.23474609 36.19974609 -11.90699219 36.21199219 -12.59960938 36.22460938 C-16.29878237 36.23562975 -17.83971933 36.10685378 -21 34 C-17.7 34 -14.4 34 -11 34 C-12.32 33.34 -13.64 32.68 -15 32 C-10.05 32 -5.1 32 0 32 C0 21.44 0 10.88 0 0 Z " fill="#DAE6F2" transform="translate(340,67)"/>
<path d="M0 0 C5 4 5 4 5.56762695 6.29003906 C5.54144287 7.10698242 5.51525879 7.92392578 5.48828125 8.765625 C5.47216797 9.65507813 5.45605469 10.54453125 5.43945312 11.4609375 C5.39755859 12.38132812 5.35566406 13.30171875 5.3125 14.25 C5.27866211 15.65378906 5.27866211 15.65378906 5.24414062 17.0859375 C5.18530595 19.39225674 5.10317146 21.69530838 5 24 C4.67 24 4.34 24 4 24 C3.67 21.36 3.34 18.72 3 16 C2.67 18.64 2.34 21.28 2 24 C1.67 24 1.34 24 1 24 C0.67 16.08 0.34 8.16 0 0 Z " fill="#0454A0" transform="translate(82,48)"/>
<path d="M0 0 C0 10.56 0 21.12 0 32 C-1.32 31.34 -2.64 30.68 -4 30 C-3.01 30 -2.02 30 -1 30 C-1 20.76 -1 11.52 -1 2 C-2.65 2.33 -4.3 2.66 -6 3 C-7.9996441 3.03772913 -10.00054061 3.04649906 -12 3 C-12 2.34 -12 1.68 -12 1 C-9 -1 -9 -1 0 0 Z " fill="#0B559D" transform="translate(372,4)"/>
<path d="M0 0 C1.32 0 2.64 0 4 0 C4 1.98 4 3.96 4 6 C0.04 6 -3.92 6 -8 6 C-8 5.01 -8 4.02 -8 3 C-6.865625 2.690625 -5.73125 2.38125 -4.5625 2.0625 C-1.21224901 1.37075469 -1.21224901 1.37075469 0 0 Z " fill="#FCFCFB" transform="translate(376,127)"/>
<path d="M0 0 C0.33 1.32 0.66 2.64 1 4 C1.66 4 2.32 4 3 4 C3.02725341 5.7290774 3.04650987 7.45828176 3.0625 9.1875 C3.07410156 10.15042969 3.08570313 11.11335938 3.09765625 12.10546875 C3.00486622 14.85576513 2.62111685 17.32479591 2 20 C2.66 20.33 3.32 20.66 4 21 C3.34 21.99 2.68 22.98 2 24 C-0.25943749 15.95075394 -0.19676277 8.29683005 0 0 Z " fill="#DDE9F5" transform="translate(301,60)"/>
<path d="M0 0 C6.93 0.99 13.86 1.98 21 3 C21 3.33 21 3.66 21 4 C13.08 4 5.16 4 -3 4 C-2.01 3.67 -1.02 3.34 0 3 C0 2.01 0 1.02 0 0 Z " fill="#E6ECF1" transform="translate(299,129)"/>
<path d="M0 0 C1.65 0.33 3.3 0.66 5 1 C5 2.98 5 4.96 5 7 C1.7 7.66 -1.6 8.32 -5 9 C-5 8.01 -5 7.02 -5 6 C-4.01 6 -3.02 6 -2 6 C-1.34 4.02 -0.68 2.04 0 0 Z " fill="#025BAB" transform="translate(375,120)"/>
<path d="M0 0 C1.485 0.99 1.485 0.99 3 2 C3.1875 5.625 3.1875 5.625 3 9 C3.66 8.34 4.32 7.68 5 7 C4.67 13.6 4.34 20.2 4 27 C3.67 27 3.34 27 3 27 C3 21.72 3 16.44 3 11 C2.01 11.33 1.02 11.66 0 12 C0 8.04 0 4.08 0 0 Z " fill="#05519D" transform="translate(297,49)"/>
<path d="M0 0 C1.62490954 -0.02698189 3.24994633 -0.04638757 4.875 -0.0625 C5.77992188 -0.07410156 6.68484375 -0.08570312 7.6171875 -0.09765625 C10 0 10 0 12 1 C13.70363822 1.22622081 15.41328701 1.40888473 17.125 1.5625 C18.03507812 1.64628906 18.94515625 1.73007812 19.8828125 1.81640625 C20.58148438 1.87699219 21.28015625 1.93757813 22 2 C22 2.33 22 2.66 22 3 C14.08 3.33 6.16 3.66 -2 4 C-0.68 3.34 0.64 2.68 2 2 C1.34 1.34 0.68 0.68 0 0 Z " fill="#074FA0" transform="translate(330,27)"/>
<path d="M0 0 C3.12498063 -0.02895976 6.2499269 -0.04678483 9.375 -0.0625 C10.70917969 -0.07506836 10.70917969 -0.07506836 12.0703125 -0.08789062 C13.34648437 -0.09272461 13.34648437 -0.09272461 14.6484375 -0.09765625 C15.43395996 -0.10289307 16.21948242 -0.10812988 17.02880859 -0.11352539 C19 0 19 0 21 1 C21 1.66 21 2.32 21 3 C22.32 3.33 23.64 3.66 25 4 C16.63051177 3.25166929 8.3230205 2.14302815 0 1 C0 0.67 0 0.34 0 0 Z " fill="#E0EAF2" transform="translate(347,0)"/>
<path d="M0 0 C2.97 0.495 2.97 0.495 6 1 C3.88229834 3.32947183 1.96664412 4.88750845 -1 6 C-1.99 5.67 -2.98 5.34 -4 5 C-6.33183607 4.32811503 -8.66501142 3.66084583 -11 3 C-8.08291076 1.01637931 -6.87619096 1.0123809 -3.25 1.375 C-2.1775 1.58125 -1.105 1.7875 0 2 C0 1.34 0 0.68 0 0 Z " fill="#0654A2" transform="translate(100,120)"/>
<path d="M0 0 C2.04119788 1.61594832 4.04072937 3.2856382 6 5 C6 5.66 6 6.32 6 7 C5.01 7 4.02 7 3 7 C3 7.66 3 8.32 3 9 C2.34 9 1.68 9 1 9 C0.67 10.32 0.34 11.64 0 13 C-0.22786458 11.01432292 -0.45572917 9.02864583 -0.68359375 7.04296875 C-0.97170735 4.80603607 -0.97170735 4.80603607 -2 2 C-1.34 2 -0.68 2 0 2 C0 1.34 0 0.68 0 0 Z " fill="#F3F6F9" transform="translate(72,33)"/>
<path d="M0 0 C0.66 0.33 1.32 0.66 2 1 C1.34 4.96 0.68 8.92 0 13 C-1.32 13 -2.64 13 -4 13 C-3.40895235 8.15340923 -2.02055843 4.39251833 0 0 Z " fill="#155FAD" transform="translate(260,35)"/>
<path d="M0 0 C0.33 0 0.66 0 1 0 C1 2.64 1 5.28 1 8 C0.34 8 -0.32 8 -1 8 C-0.34 9.98 0.32 11.96 1 14 C0.01 14.495 0.01 14.495 -1 15 C-1.52938657 13.04396149 -2.04826801 11.08507711 -2.5625 9.125 C-2.85253906 8.03445312 -3.14257812 6.94390625 -3.44140625 5.8203125 C-4 3 -4 3 -3 1 C-2.34 1 -1.68 1 -1 1 C-0.67 0.67 -0.34 0.34 0 0 Z " fill="#E8F1F7" transform="translate(132,40)"/>
<path d="M0 0 C-0.33 1.65 -0.66 3.3 -1 5 C-2.65 5 -4.3 5 -6 5 C-6 4.34 -6 3.68 -6 3 C-9.63 4.32 -13.26 5.64 -17 7 C-17 6.34 -17 5.68 -17 5 C-15.25093469 4.35163958 -13.50070781 3.70641216 -11.75 3.0625 C-10.77546875 2.70285156 -9.8009375 2.34320313 -8.796875 1.97265625 C-3.12449799 0 -3.12449799 0 0 0 Z " fill="#155CA5" transform="translate(308,2)"/>
<path d="M0 0 C0.33 0.99 0.66 1.98 1 3 C1.66 3 2.32 3 3 3 C3 4.98 3 6.96 3 9 C2.34 9 1.68 9 1 9 C0.67 10.32 0.34 11.64 0 13 C-0.33 13 -0.66 13 -1 13 C-2.0070238 7.96488101 -1.97387813 4.76052962 0 0 Z " fill="#EBF2F8" transform="translate(252,49)"/>
<path d="M0 0 C0.33 0.99 0.66 1.98 1 3 C-0.45738102 3.98058352 -1.91593675 4.95942132 -3.375 5.9375 C-4.18710937 6.48277344 -4.99921875 7.02804688 -5.8359375 7.58984375 C-8 9 -8 9 -10 10 C-10 8.68 -10 7.36 -10 6 C-9.01 6 -8.02 6 -7 6 C-7 5.34 -7 4.68 -7 4 C-6.34 3.67 -5.68 3.34 -5 3 C-5.33 2.34 -5.66 1.68 -6 1 C-4.02 0.67 -2.04 0.34 0 0 Z " fill="#DFEEF3" transform="translate(284,8)"/>
<path d="M0 0 C0.33 0.99 0.66 1.98 1 3 C2.32 2.67 3.64 2.34 5 2 C4.875 3.8125 4.875 3.8125 4 6 C0.9375 7.75 0.9375 7.75 -2 9 C-1.67 7.35 -1.34 5.7 -1 4 C-1.66 3.67 -2.32 3.34 -3 3 C-2.01 2.01 -1.02 1.02 0 0 Z " fill="#145CA5" transform="translate(108,113)"/>
<path d="M0 0 C0 0.66 0 1.32 0 2 C-2.5 3.5 -2.5 3.5 -5 5 C-5 5.66 -5 6.32 -5 7 C-8.28976808 8.09658936 -9.71303767 7.79953138 -13 7 C-10.84545751 4.64283596 -8.80280126 3.21033856 -5.9375 1.8125 C-5.24527344 1.46832031 -4.55304688 1.12414063 -3.83984375 0.76953125 C-2 0 -2 0 0 0 Z " fill="#E7EFF6" transform="translate(327,32)"/>
<path d="M0 0 C-0.66 1.65 -1.32 3.3 -2 5 C-4.64 5 -7.28 5 -10 5 C-8.68 4.67 -7.36 4.34 -6 4 C-6 3.34 -6 2.68 -6 2 C-7.32 1.67 -8.64 1.34 -10 1 C-8.71073008 0.63720544 -7.41846728 0.28503302 -6.125 -0.0625 C-5.40570313 -0.25972656 -4.68640625 -0.45695312 -3.9453125 -0.66015625 C-2 -1 -2 -1 0 0 Z " fill="#EDF5F4" transform="translate(95,128)"/>
<path d="M0 0 C2.97 0.495 2.97 0.495 6 1 C5.979375 1.9075 5.95875 2.815 5.9375 3.75 C5.9889755 6.42672588 6.2215017 8.46988052 7 11 C3.17330957 7.57611908 1.27721526 4.99275057 0 0 Z " fill="#0D56A5" transform="translate(261,96)"/>
<path d="M0 0 C0.99 0 1.98 0 3 0 C3 2.31 3 4.62 3 7 C1.68 6.34 0.36 5.68 -1 5 C-0.67 5.99 -0.34 6.98 0 8 C-1.32 7.34 -2.64 6.68 -4 6 C-1.125 1.125 -1.125 1.125 0 0 Z " fill="#0955A1" transform="translate(268,24)"/>
<path d="M0 0 C0.66 0.33 1.32 0.66 2 1 C2.144375 1.66 2.28875 2.32 2.4375 3 C2.623125 3.66 2.80875 4.32 3 5 C3.99 5.33 4.98 5.66 6 6 C4 7 4 7 0.4375 6.25 C-0.696875 5.8375 -1.83125 5.425 -3 5 C-3.33 4.01 -3.66 3.02 -4 2 C-2.125 0.9375 -2.125 0.9375 0 0 Z " fill="#0E61AC" transform="translate(72,97)"/>
<path d="M0 0 C3.96 1.32 7.92 2.64 12 4 C11.01 5.485 11.01 5.485 10 7 C7.525 6.01 7.525 6.01 5 5 C5 4.34 5 3.68 5 3 C3.35 2.67 1.7 2.34 0 2 C0 1.34 0 0.68 0 0 Z " fill="#EBF3F8" transform="translate(361,32)"/>
<path d="M0 0 C2.05078125 0.03255208 4.1015625 0.06510417 6.15234375 0.09765625 C6.15234375 0.75765625 6.15234375 1.41765625 6.15234375 2.09765625 C7.14234375 2.42765625 8.13234375 2.75765625 9.15234375 3.09765625 C6.51234375 2.76765625 3.87234375 2.43765625 1.15234375 2.09765625 C0.82234375 3.08765625 0.49234375 4.07765625 0.15234375 5.09765625 C-0.50765625 4.76765625 -1.16765625 4.43765625 -1.84765625 4.09765625 C-1.51765625 3.43765625 -1.18765625 2.77765625 -0.84765625 2.09765625 C-1.50765625 1.76765625 -2.16765625 1.43765625 -2.84765625 1.09765625 C-1.84765625 0.09765625 -1.84765625 0.09765625 0 0 Z " fill="#FDFDFD" transform="translate(294.84765625,-0.09765625)"/>
<path d="M0 0 C0.66 0.33 1.32 0.66 2 1 C1.67 2.65 1.34 4.3 1 6 C0.01 6.33 -0.98 6.66 -2 7 C-2.99 6.34 -3.98 5.68 -5 5 C-3.35 3.35 -1.7 1.7 0 0 Z " fill="#2165A9" transform="translate(273,18)"/>
<path d="M0 0 C1.32 0 2.64 0 4 0 C4.33 0.66 4.66 1.32 5 2 C6.32 2 7.64 2 9 2 C8.67 2.99 8.34 3.98 8 5 C8.38932856 7.14255793 8.38932856 7.14255793 9 9 C7.87105124 8.06725891 6.74699124 7.12859878 5.625 6.1875 C4.99851562 5.66542969 4.37203125 5.14335937 3.7265625 4.60546875 C2 3 2 3 0 0 Z " fill="#E1EEF6" transform="translate(111,12)"/>
<path d="M0 0 C0.66 0.99 1.32 1.98 2 3 C0.94263343 6.65272086 -0.853666 9.86992958 -3 13 C-3.66 13 -4.32 13 -5 13 C-3.58192622 8.52761347 -1.88695626 4.28853694 0 0 Z " fill="#DBE9F3" transform="translate(126,96)"/>
<path d="M0 0 C0.66 0 1.32 0 2 0 C0.66666667 3.33333333 -0.66666667 6.66666667 -2 10 C-2.66 9.67 -3.32 9.34 -4 9 C-3.4739075 5.21213403 -2.61896089 2.82847776 0 0 Z " fill="#E7F1F4" transform="translate(261,30)"/>
<path d="M0 0 C3.3 0 6.6 0 10 0 C10 0.66 10 1.32 10 2 C6.7 2.33 3.4 2.66 0 3 C0 2.01 0 1.02 0 0 Z " fill="#195EAB" transform="translate(352,129)"/>
<path d="M0 0 C2.5 2.3125 2.5 2.3125 5 5 C5 5.99 5 6.98 5 8 C2.525 7.01 2.525 7.01 0 6 C0 4.02 0 2.04 0 0 Z " fill="#1D61A7" transform="translate(115,16)"/>
<path d="M0 0 C0.33 0.66 0.66 1.32 1 2 C-2.3 2.66 -5.6 3.32 -9 4 C-9 3.01 -9 2.02 -9 1 C-5.92677456 0.08941469 -3.19902639 -0.08886184 0 0 Z " fill="#1F64AC" transform="translate(379,125)"/>
<path d="M0 0 C0.99 0.33 1.98 0.66 3 1 C3 2.65 3 4.3 3 6 C2.01 6.33 1.02 6.66 0 7 C-0.66 5.68 -1.32 4.36 -2 3 C-1.34 2.01 -0.68 1.02 0 0 Z " fill="#F2F7F1" transform="translate(308,87)"/>
<path d="M0 0 C-1.32 1.65 -2.64 3.3 -4 5 C-4.66 4.67 -5.32 4.34 -6 4 C-6 2.68 -6 1.36 -6 0 C-3 -1 -3 -1 0 0 Z " fill="#125FAF" transform="translate(311,41)"/>
<path d="M0 0 C2.97 0.495 2.97 0.495 6 1 C2.15299368 3.08379509 -1.90054429 4.49686624 -6 6 C-6 5.34 -6 4.68 -6 4 C-4.7934375 3.566875 -4.7934375 3.566875 -3.5625 3.125 C-0.8673532 2.26737432 -0.8673532 2.26737432 0 0 Z " fill="#E2EDF6" transform="translate(296,2)"/>
<path d="M0 0 C4.21912747 0.4794463 6.79663178 1.16625119 10 4 C7.03 3.67 4.06 3.34 1 3 C0.67 2.01 0.34 1.02 0 0 Z " fill="#E8EEF4" transform="translate(281,122)"/>
<path d="M0 0 C1 4 1 4 0 6 C-0.99 6 -1.98 6 -3 6 C-3.33 6.99 -3.66 7.98 -4 9 C-4.66 8.34 -5.32 7.68 -6 7 C-4.02 4.69 -2.04 2.38 0 0 Z " fill="#EAF3F8" transform="translate(119,110)"/>
<path d="M0 0 C0.66 0.33 1.32 0.66 2 1 C2 3.64 2 6.28 2 9 C1.01 9 0.02 9 -1 9 C-0.67 6.03 -0.34 3.06 0 0 Z " fill="#055DB1" transform="translate(124,90)"/>
<path d="M0 0 C1.65 0 3.3 0 5 0 C4.45276317 3.37462715 3.9451 5.08235 2 8 C1.855625 7.05125 1.71125 6.1025 1.5625 5.125 C1.17064601 2.1065506 1.17064601 2.1065506 0 0 Z " fill="#165EA5" transform="translate(300,48)"/>
<path d="M0 0 C0.66 0 1.32 0 2 0 C2.6875 1.75 2.6875 1.75 3 4 C1.5625 6.25 1.5625 6.25 0 8 C-0.98120464 4.94736336 -0.98120464 3.05263664 0 0 Z " fill="#1363AE" transform="translate(124,32)"/>
<path d="M0 0 C0.99 0.33 1.98 0.66 3 1 C2.67 1.99 2.34 2.98 2 4 C-0.64 4.33 -3.28 4.66 -6 5 C-2.25 1.125 -2.25 1.125 0 0 Z " fill="#145CAB" transform="translate(283,11)"/>
<path d="M0 0 C0.33 0 0.66 0 1 0 C0.50769231 6.52307692 0.50769231 6.52307692 -2.0625 8.9375 C-2.701875 9.288125 -3.34125 9.63875 -4 10 C-3.625 7.5625 -3.625 7.5625 -3 5 C-2.34 4.67 -1.68 4.34 -1 4 C-0.34786708 1.97536745 -0.34786708 1.97536745 0 0 Z " fill="#1458A0" transform="translate(121,102)"/>
<path d="M0 0 C0.99 0 1.98 0 3 0 C3 2.31 3 4.62 3 7 C2.01 7.495 2.01 7.495 1 8 C0.67 5.36 0.34 2.72 0 0 Z " fill="#015EB6" transform="translate(82,43)"/>
<path d="M0 0 C1.65 0.99 3.3 1.98 5 3 C2.39417629 3.93065133 1.35801776 4.14917407 -1.25 3.0625 C-1.8275 2.711875 -2.405 2.36125 -3 2 C-2.01 1.34 -1.02 0.68 0 0 Z " fill="#EDF1F4" transform="translate(275,116)"/>
<path d="M0 0 C0.33 0.99 0.66 1.98 1 3 C-0.65 3.66 -2.3 4.32 -4 5 C-4 4.01 -4 3.02 -4 2 C-4.66 1.67 -5.32 1.34 -6 1 C-4.02 0.67 -2.04 0.34 0 0 Z " fill="#EEF1F6" transform="translate(284,8)"/>
</svg>
