<svg version="1.1" id="Layer_1" xmlns="http://www.w3.org/2000/svg" xmlns:xlink="http://www.w3.org/1999/xlink" x="0px" y="0px"
	 width="100%" viewBox="0 0 795 795" enable-background="new 0 0 795 795" xml:space="preserve">
<path fill="#FFFFFF" opacity="1.000000" stroke="none" 
	d="
M1.000000,762.000000 
	C1.000000,508.333344 1.000000,254.666672 1.000000,1.000000 
	C266.000000,1.000000 531.000000,1.000000 796.000000,1.000000 
	C796.000000,266.000000 796.000000,531.000000 796.000000,796.000000 
	C531.000000,796.000000 266.000000,796.000000 1.278291,795.495117 
	C1.739570,794.959473 1.922558,794.928711 2.565160,794.945190 
	C266.914062,794.992554 530.803345,794.992554 795.299011,794.992554 
	C794.312927,782.813538 794.170715,771.252136 792.314331,759.972900 
	C786.801697,726.478210 769.880371,700.178833 739.641479,684.078674 
	C710.164001,668.383911 680.092896,653.783447 650.056396,639.167053 
	C631.976013,630.368713 613.424988,622.541870 595.167236,614.101562 
	C588.898132,611.203552 588.922791,610.919922 591.588745,604.789307 
	C596.294922,593.966919 601.110596,583.191956 605.899475,572.405701 
	C612.374817,557.820740 619.789917,543.572693 625.136108,528.585876 
	C633.009094,506.516144 627.833740,499.531891 613.852112,489.156281 
	C607.322571,484.310760 600.341309,480.008728 593.275269,475.966553 
	C582.754700,469.948242 571.977600,464.378235 560.598450,458.233429 
	C563.621155,453.216095 566.685303,448.339478 569.530396,443.338226 
	C571.633118,439.641815 574.432129,439.089142 578.299072,440.282776 
	C585.599854,442.536438 592.980225,444.540771 600.360413,446.526764 
	C615.299377,450.546783 627.522949,446.365662 638.393372,435.337402 
	C650.999695,422.548096 655.452148,407.115143 655.580444,389.919678 
	C655.734070,369.337708 650.893616,350.872650 632.448853,338.631104 
	C629.252686,336.509857 628.257690,333.550293 629.005554,329.982758 
	C629.720215,326.573181 630.374329,323.100220 631.588318,319.854553 
	C637.291687,304.606018 639.430054,289.100830 637.102661,272.812225 
	C634.557922,255.002243 632.470398,237.158844 625.193115,220.460266 
	C621.241333,211.392273 615.863098,203.507507 606.506836,199.232819 
	C603.709534,197.954773 603.649658,196.073761 604.245300,193.542953 
	C605.272522,189.178818 606.425781,184.805664 606.950623,180.368210 
	C610.773682,148.045761 587.744568,113.178291 558.505005,101.361252 
	C550.734436,98.220795 542.409363,98.656509 534.471130,101.081192 
	C527.677002,103.156425 527.798340,103.496948 523.995178,97.283012 
	C523.040894,95.723961 522.033569,94.186325 520.925110,92.734726 
	C516.735229,87.248070 511.441620,83.584572 504.265137,84.735909 
	C498.788208,85.614601 493.337158,87.026543 488.090302,88.829239 
	C484.895172,89.927032 483.015076,90.477066 480.697083,87.056702 
	C477.545166,82.405891 473.508270,78.327637 469.657715,74.183357 
	C462.102905,66.052261 452.563019,62.171486 441.581482,62.124863 
	C434.764740,62.095921 427.916138,62.397392 421.132355,63.064205 
	C395.911316,65.543282 370.906281,69.055450 347.355408,79.289413 
	C345.636414,80.036385 342.974640,79.498795 341.063477,78.755508 
	C334.899567,76.358215 329.077057,72.901794 322.767242,71.098145 
	C309.246826,67.233360 295.555542,68.676193 282.379395,72.749916 
	C271.465790,76.124130 260.839539,80.539223 250.309860,85.019325 
	C232.205536,92.722252 221.500412,106.626945 218.248718,125.947174 
	C217.234955,131.970566 214.259567,135.134811 209.071594,138.176392 
	C198.353226,144.460312 187.699738,151.152161 178.139496,159.034561 
	C167.584442,167.737198 162.169235,179.890717 161.917480,193.723129 
	C161.756104,202.589661 158.668243,209.328003 151.428558,214.590942 
	C144.121765,219.902679 140.058258,227.144485 141.204346,236.554611 
	C142.852112,250.083893 144.043777,263.699707 146.454742,277.094116 
	C148.041779,285.911072 147.548843,293.290375 141.050018,300.099701 
	C134.115845,307.365143 132.004410,316.442169 132.737167,326.427063 
	C133.581985,337.939148 137.428955,348.526642 142.190979,358.804230 
	C144.060303,362.838623 143.941895,365.978516 141.875687,369.907196 
	C132.604370,387.535492 127.836823,406.160736 130.933594,426.220612 
	C134.143951,447.016296 146.385559,460.083344 166.187546,463.763245 
	C180.615753,466.444458 193.466888,462.016632 205.556824,454.528625 
	C209.590546,452.030304 213.627823,449.537720 218.012405,446.826752 
	C222.446487,453.103638 226.525681,458.878113 230.896225,465.065063 
	C224.652039,469.939697 218.686188,474.181091 213.195770,478.967773 
	C200.914825,489.674683 188.521698,500.294464 176.852402,511.646790 
	C169.034454,519.252441 167.877228,528.948120 172.925278,538.791260 
	C177.626099,547.957336 182.720856,556.923096 187.716599,565.935852 
	C194.327927,577.863220 200.945190,589.788330 207.699417,601.634888 
	C210.148621,605.930725 209.180817,608.523254 204.749146,610.604980 
	C197.830872,613.854919 191.193512,617.706543 184.255875,620.910828 
	C151.504715,636.036987 118.584885,650.802063 85.940910,666.154602 
	C66.007080,675.529480 46.969917,686.487610 31.181370,702.273499 
	C14.621398,718.830627 4.109266,738.336426 1.641536,761.915955 
	C1.424928,761.915649 1.000000,762.000000 1.000000,762.000000 
z"/>
<path fill="#95BDDB" opacity="1.000000" stroke="none" 
	d="
M2.105546,794.897888 
	C1.922558,794.928711 1.739570,794.959473 1.278291,794.995117 
	C1.000000,784.312439 1.000000,773.624878 1.000000,762.468628 
	C1.000000,762.000000 1.424928,761.915649 1.733888,762.382446 
	C2.063747,773.532104 2.084647,784.215027 2.105546,794.897888 
z"/>
<path fill="#015FA8" opacity="1.000000" stroke="none" 
	d="
M2.565160,794.945190 
	C2.084647,784.215027 2.063747,773.532104 1.950495,762.382751 
	C4.109266,738.336426 14.621398,718.830627 31.181370,702.273499 
	C46.969917,686.487610 66.007080,675.529480 85.940910,666.154602 
	C118.584885,650.802063 151.504715,636.036987 184.255875,620.910828 
	C191.193512,617.706543 197.830872,613.854919 204.749146,610.604980 
	C209.180817,608.523254 210.148621,605.930725 207.699417,601.634888 
	C200.945190,589.788330 194.327927,577.863220 187.716599,565.935852 
	C182.720856,556.923096 177.626099,547.957336 172.925278,538.791260 
	C167.877228,528.948120 169.034454,519.252441 176.852402,511.646790 
	C188.521698,500.294464 200.914825,489.674683 213.195770,478.967773 
	C218.686188,474.181091 224.652039,469.939697 230.896225,465.065063 
	C226.525681,458.878113 222.446487,453.103638 218.012405,446.826752 
	C213.627823,449.537720 209.590546,452.030304 205.556824,454.528625 
	C193.466888,462.016632 180.615753,466.444458 166.187546,463.763245 
	C146.385559,460.083344 134.143951,447.016296 130.933594,426.220612 
	C127.836823,406.160736 132.604370,387.535492 141.875687,369.907196 
	C143.941895,365.978516 144.060303,362.838623 142.190979,358.804230 
	C137.428955,348.526642 133.581985,337.939148 132.737167,326.427063 
	C132.004410,316.442169 134.115845,307.365143 141.050018,300.099701 
	C147.548843,293.290375 148.041779,285.911072 146.454742,277.094116 
	C144.043777,263.699707 142.852112,250.083893 141.204346,236.554611 
	C140.058258,227.144485 144.121765,219.902679 151.428558,214.590942 
	C158.668243,209.328003 161.756104,202.589661 161.917480,193.723129 
	C162.169235,179.890717 167.584442,167.737198 178.139496,159.034561 
	C187.699738,151.152161 198.353226,144.460312 209.071594,138.176392 
	C214.259567,135.134811 217.234955,131.970566 218.248718,125.947174 
	C221.500412,106.626945 232.205536,92.722252 250.309860,85.019325 
	C260.839539,80.539223 271.465790,76.124130 282.379395,72.749916 
	C295.555542,68.676193 309.246826,67.233360 322.767242,71.098145 
	C329.077057,72.901794 334.899567,76.358215 341.063477,78.755508 
	C342.974640,79.498795 345.636414,80.036385 347.355408,79.289413 
	C370.906281,69.055450 395.911316,65.543282 421.132355,63.064205 
	C427.916138,62.397392 434.764740,62.095921 441.581482,62.124863 
	C452.563019,62.171486 462.102905,66.052261 469.657715,74.183357 
	C473.508270,78.327637 477.545166,82.405891 480.697083,87.056702 
	C483.015076,90.477066 484.895172,89.927032 488.090302,88.829239 
	C493.337158,87.026543 498.788208,85.614601 504.265137,84.735909 
	C511.441620,83.584572 516.735229,87.248070 520.925110,92.734726 
	C522.033569,94.186325 523.040894,95.723961 523.995178,97.283012 
	C527.798340,103.496948 527.677002,103.156425 534.471130,101.081192 
	C542.409363,98.656509 550.734436,98.220795 558.505005,101.361252 
	C587.744568,113.178291 610.773682,148.045761 606.950623,180.368210 
	C606.425781,184.805664 605.272522,189.178818 604.245300,193.542953 
	C603.649658,196.073761 603.709534,197.954773 606.506836,199.232819 
	C615.863098,203.507507 621.241333,211.392273 625.193115,220.460266 
	C632.470398,237.158844 634.557922,255.002243 637.102661,272.812225 
	C639.430054,289.100830 637.291687,304.606018 631.588318,319.854553 
	C630.374329,323.100220 629.720215,326.573181 629.005554,329.982758 
	C628.257690,333.550293 629.252686,336.509857 632.448853,338.631104 
	C650.893616,350.872650 655.734070,369.337708 655.580444,389.919678 
	C655.452148,407.115143 650.999695,422.548096 638.393372,435.337402 
	C627.522949,446.365662 615.299377,450.546783 600.360413,446.526764 
	C592.980225,444.540771 585.599854,442.536438 578.299072,440.282776 
	C574.432129,439.089142 571.633118,439.641815 569.530396,443.338226 
	C566.685303,448.339478 563.621155,453.216095 560.598450,458.233429 
	C571.977600,464.378235 582.754700,469.948242 593.275269,475.966553 
	C600.341309,480.008728 607.322571,484.310760 613.852112,489.156281 
	C627.833740,499.531891 633.009094,506.516144 625.136108,528.585876 
	C619.789917,543.572693 612.374817,557.820740 605.899475,572.405701 
	C601.110596,583.191956 596.294922,593.966919 591.588745,604.789307 
	C588.922791,610.919922 588.898132,611.203552 595.167236,614.101562 
	C613.424988,622.541870 631.976013,630.368713 650.056396,639.167053 
	C680.092896,653.783447 710.164001,668.383911 739.641479,684.078674 
	C769.880371,700.178833 786.801697,726.478210 792.314331,759.972900 
	C794.170715,771.252136 794.312927,782.813538 795.299011,794.992554 
	C530.803345,794.992554 266.914062,794.992554 2.565160,794.945190 
M398.747375,525.867493 
	C401.705139,526.326904 404.649078,526.932373 407.623688,527.213257 
	C412.757263,527.697998 417.106232,525.774719 420.734314,522.252991 
	C426.955811,516.213806 425.750366,509.331268 418.045929,505.289490 
	C411.989014,502.111969 406.216248,503.224640 400.261139,505.538605 
	C394.702728,507.698456 388.971497,510.552246 382.916931,508.121002 
	C376.541260,505.560913 370.588257,506.182617 364.681366,508.996277 
	C358.693970,511.848267 353.407257,510.938385 348.729034,506.421478 
	C344.412415,502.253723 340.263458,501.363190 335.550293,505.985474 
	C334.622375,506.895477 331.631989,507.153778 330.834290,506.399567 
	C329.684326,505.312347 328.803223,502.711273 329.312622,501.299164 
	C332.489502,492.492096 334.941254,488.878876 344.443878,493.974823 
	C349.459503,496.664551 354.019012,496.015900 358.180634,492.148590 
	C359.153564,491.244446 360.229309,490.438171 361.319824,489.675598 
	C366.639618,485.955414 369.806244,486.011047 374.837067,490.001862 
	C376.398041,491.240143 377.839996,492.638428 379.265564,494.035767 
	C386.859985,501.479675 387.900787,501.509796 395.499390,494.372375 
	C404.035278,486.354553 407.692505,485.635529 417.382996,492.279297 
	C423.438324,496.430847 428.890869,497.564453 435.108337,493.431732 
	C435.514130,493.162048 436.048492,493.094757 436.495117,492.876282 
	C444.152008,489.130341 447.327332,491.152069 449.180023,499.970551 
	C449.452972,501.269623 449.610657,502.605499 449.682068,503.931854 
	C449.875793,507.530945 450.091339,511.394897 454.510803,512.119568 
	C459.213135,512.890625 464.148560,514.822144 468.372742,510.148499 
	C481.922638,495.156677 491.923309,477.928619 500.036774,459.602386 
	C502.271362,454.554993 502.825256,448.745636 503.991211,443.252167 
	C504.437866,441.147675 504.627838,438.947571 504.614166,436.793060 
	C504.509033,420.192780 507.554047,404.085693 511.347961,387.989410 
	C513.187073,380.186737 512.677063,371.980377 507.662354,365.008881 
	C504.855804,361.107178 502.092529,361.330750 500.428894,365.791687 
	C498.945374,369.769836 498.501587,374.139679 497.643982,378.345886 
	C497.117493,380.928131 497.395844,383.993866 496.071930,386.039337 
	C490.115234,395.242432 481.272736,400.779846 470.879395,403.667480 
	C466.399231,404.912231 461.522614,399.926605 463.797028,396.477600 
	C467.691833,390.571411 466.318634,387.095703 460.543762,384.252197 
	C460.372589,384.167877 460.412811,383.654175 460.190979,382.462494 
	C463.637268,381.350067 467.122070,379.604797 470.762573,379.173492 
	C479.534210,378.134216 484.713593,372.711884 488.732239,365.664886 
	C493.023956,358.139038 490.652649,352.856873 481.508392,350.346375 
	C481.284515,352.341461 481.097748,354.247589 480.852966,356.146271 
	C479.555359,366.212219 471.478760,373.940796 462.345734,373.873291 
	C453.591522,373.808624 446.302368,367.157349 445.126007,358.160522 
	C444.037048,349.832062 443.170197,349.460938 436.109161,354.348816 
	C435.152985,355.010742 434.219849,355.719055 433.348450,356.487946 
	C430.284393,359.191589 429.979584,362.105286 432.924011,365.078461 
	C435.267273,367.444519 437.880554,369.563416 440.055237,372.068695 
	C441.369080,373.582275 443.296936,376.693726 442.827118,377.230621 
	C441.337860,378.932678 438.896851,380.637085 436.740784,380.749664 
	C431.992157,380.997589 431.264008,383.221283 431.822296,387.254669 
	C433.257416,397.622803 434.930176,407.990356 435.623291,418.416931 
	C436.045837,424.773682 438.056915,429.902527 442.086945,434.650238 
	C448.741028,442.489197 448.752930,448.123291 442.008484,455.862823 
	C438.855164,459.481384 434.176056,462.029327 431.814667,466.023834 
	C427.238190,473.765320 421.199585,474.668335 413.547546,472.288147 
	C411.814270,471.749023 409.898132,471.215454 408.152527,471.419220 
	C404.471558,471.848938 400.538361,472.106567 397.269745,473.634827 
	C391.765442,476.208282 388.897278,475.940460 385.436615,470.855316 
	C384.504669,469.485931 383.753448,467.994629 382.896454,466.572998 
	C380.301270,462.267944 376.867950,460.654541 371.960114,462.837891 
	C369.699005,463.843781 367.252502,464.494354 364.834473,465.074493 
	C357.323669,466.876617 346.441803,458.658447 346.705048,450.910645 
	C346.782532,448.629456 348.793091,445.714386 350.782898,444.377655 
	C353.186401,442.762970 355.401642,444.585571 356.611847,447.221283 
	C357.005157,448.077820 357.795532,448.752075 358.645538,449.809937 
	C362.525482,446.700653 366.268188,443.693054 370.020111,440.696960 
	C373.499634,437.918488 376.845032,438.488586 378.852478,442.148224 
	C380.970764,446.010040 382.500122,450.271820 383.740753,454.518372 
	C385.232880,459.625885 388.600403,461.879608 393.563507,462.109680 
	C402.119812,462.506409 409.496490,454.164246 407.189453,445.277313 
	C403.635498,431.587067 403.904572,417.875458 405.373840,404.158234 
	C406.532898,393.337128 405.269470,382.980530 402.677338,372.566650 
	C401.277466,366.942841 399.786194,361.180359 399.627136,355.444641 
	C399.345001,345.271912 399.434479,334.534332 407.804840,327.132599 
	C419.862122,316.470642 434.192749,309.731232 450.103760,307.109344 
	C462.166962,305.121490 473.552277,307.835876 484.091278,314.175812 
	C489.552582,317.461182 490.912689,316.800079 493.123505,310.801636 
	C495.793182,303.558075 495.786163,296.444366 491.904114,289.640961 
	C488.860779,284.307373 485.798004,278.958374 482.334045,273.896698 
	C474.985504,263.158844 471.406097,252.073715 474.589233,238.695297 
	C476.389221,231.130173 476.782440,222.568970 475.215668,214.992767 
	C471.119965,195.188049 452.617371,183.446854 431.078674,186.415543 
	C413.572540,188.828415 396.636292,188.317215 380.185333,181.123901 
	C369.033325,176.247574 357.233765,176.012222 345.341583,177.312836 
	C337.397400,178.181656 329.458954,179.104126 321.521210,180.030609 
	C301.428070,182.375839 285.663605,191.773346 274.975983,209.085114 
	C266.769257,222.378357 263.541626,237.213684 264.157166,252.554565 
	C264.608398,263.801666 262.190369,273.928314 257.230560,283.762024 
	C255.361176,287.468414 253.962112,291.410645 252.124664,295.134857 
	C248.060287,303.372650 246.488419,311.966614 246.762146,321.193329 
	C247.424271,343.510223 247.517624,365.843384 248.026718,388.165741 
	C248.202530,395.874634 245.361069,401.558624 238.828888,405.771576 
	C236.450882,407.305267 233.752960,409.758881 233.089371,412.288239 
	C230.307129,422.892914 231.146210,433.580322 236.444824,443.189301 
	C240.421997,450.401855 247.761078,450.204468 252.855667,443.795532 
	C254.620758,441.575073 256.757080,439.649750 259.757629,436.506775 
	C260.268005,440.618896 260.664124,443.019775 260.844177,445.436737 
	C261.152802,449.580170 261.013611,453.779297 261.611755,457.874847 
	C264.006104,474.268982 269.426666,489.739166 276.702881,504.553528 
	C278.807465,508.838501 279.162262,512.595703 277.470276,517.278137 
	C273.859955,527.269409 271.298096,537.634033 267.921936,547.716797 
	C262.568542,563.704529 264.972504,578.327820 272.860687,593.186401 
	C289.231873,624.023987 311.105103,649.489990 340.941589,667.879517 
	C349.434814,673.114258 353.960083,673.328552 361.045837,666.335571 
	C370.616882,656.890015 379.595490,646.800842 388.293365,636.534668 
	C391.886841,632.293274 394.499176,627.061523 396.827728,621.947754 
	C399.767395,615.491760 397.961975,613.184937 390.902313,611.842224 
	C379.345917,609.644287 367.118927,608.847656 356.474274,604.370483 
	C321.673096,589.733093 299.069794,562.863647 285.097748,528.291077 
	C284.594910,527.046753 284.539520,525.621643 284.275574,524.280762 
	C287.487274,525.169739 289.828918,526.637390 291.877594,528.438354 
	C298.508911,534.267883 304.933899,540.334351 311.618683,546.100464 
	C324.983795,557.628845 338.461395,569.033997 354.738190,576.425476 
	C356.215454,577.096313 357.862488,577.837769 359.420593,577.816345 
	C372.910126,577.630493 386.415466,577.602844 399.878510,576.853149 
	C408.139832,576.393188 414.715393,572.040039 419.044983,564.894165 
	C426.042664,553.344788 421.325897,541.136719 408.499451,537.227112 
	C401.174164,534.994385 393.832031,535.125610 386.285095,536.371216 
	C380.966675,537.248962 375.308136,537.737183 370.072998,536.830872 
	C366.855408,536.273865 361.946167,532.990417 361.690002,530.526428 
	C361.213196,525.940002 366.519989,525.034546 370.331909,523.985962 
	C379.697998,521.409607 388.821960,523.393555 398.747375,525.867493 
M435.488495,607.078552 
	C427.944153,609.075317 420.368378,610.962036 412.866089,613.105896 
	C407.536896,614.628784 406.693298,616.105347 409.073517,620.978088 
	C414.089142,631.246033 418.629059,641.908569 425.004089,651.295349 
	C429.528931,657.957886 436.299438,663.409729 442.948090,668.172974 
	C445.938782,670.315552 451.620300,670.970398 455.153290,669.706787 
	C473.321259,663.208984 490.600769,654.316345 503.097382,639.407715 
	C511.967957,628.825012 518.483887,616.204407 525.547424,604.197205 
	C529.300476,597.817505 530.898315,590.547058 529.977051,583.031006 
	C528.562927,571.494080 527.039001,559.969299 525.413269,548.460327 
	C524.858032,544.530334 523.997925,540.625793 522.978394,536.788940 
	C522.635132,535.497131 521.368286,534.450684 520.523560,533.292114 
	C519.304016,534.257263 517.727234,534.996521 516.943115,536.236877 
	C515.533997,538.465698 514.837158,541.145264 513.425232,543.371765 
	C508.729187,550.777100 504.658722,558.788147 498.884979,565.261658 
	C481.713776,584.513977 459.909058,597.185791 435.488495,607.078552 
M301.098480,133.581696 
	C297.244720,142.630615 289.288422,146.807068 280.803497,149.863510 
	C252.928314,159.904724 232.164963,178.647110 215.633698,202.579773 
	C213.726532,205.340820 212.497894,208.921738 212.053131,212.268494 
	C211.134277,219.182846 217.533936,223.343842 223.836212,220.328598 
	C228.630783,218.034668 231.876526,214.441910 232.992386,209.189468 
	C234.096451,203.992538 234.639236,198.647339 236.106323,193.562836 
	C238.873962,183.970993 245.821838,179.230011 255.781769,179.525406 
	C259.277802,179.629089 262.783295,180.032242 266.260162,179.845688 
	C267.551880,179.776367 269.517639,178.681183 269.912811,177.594452 
	C273.819946,166.849991 281.422180,158.976776 289.831573,151.824524 
	C296.718445,145.967148 304.544006,141.956909 314.006531,143.087250 
	C325.136810,144.416840 335.950684,146.852585 345.591888,153.009384 
	C348.951935,155.155090 352.354828,157.243668 355.825897,159.202866 
	C359.261108,161.141830 363.308533,163.150421 365.927277,158.735611 
	C368.459351,154.466919 363.999298,152.711456 361.382751,150.766815 
	C358.323212,148.492935 354.824280,146.807419 351.782562,144.513199 
	C348.773834,142.243851 343.697968,140.510696 345.633087,135.576324 
	C347.532227,130.733734 352.832153,131.230240 356.591248,132.392639 
	C364.935638,134.972931 373.205505,138.050354 381.083527,141.809830 
	C388.755188,145.470840 395.776489,150.299149 398.053650,159.492661 
	C398.476837,161.201202 399.728943,162.721893 400.681152,164.278717 
	C403.703217,169.219513 406.020721,169.343002 409.491760,164.632751 
	C410.352692,163.464462 411.082092,162.025452 411.339386,160.613800 
	C413.240753,150.181213 412.263550,140.639740 402.538361,134.025574 
	C399.927155,132.249664 397.315582,130.473404 394.734314,128.654541 
	C387.726166,123.716362 380.270142,122.221916 371.609558,123.646713 
	C363.693787,124.948975 355.270355,125.836975 347.486908,124.494453 
	C340.214478,123.240067 333.128052,119.439766 326.591339,115.666031 
	C308.027649,104.948837 287.953430,106.961647 272.586884,121.916954 
	C271.334564,123.135773 270.951996,125.248291 270.165283,126.945541 
	C271.945770,127.555344 273.725006,128.673584 275.506958,128.677902 
	C280.494415,128.690002 285.522644,128.541672 290.459778,127.889328 
	C295.230560,127.258972 298.473267,129.024048 301.098480,133.581696 
M551.595642,366.894318 
	C558.958313,377.211365 569.201233,383.638794 580.998352,387.327972 
	C594.053955,391.410706 606.386414,388.879730 617.332031,380.700165 
	C619.083923,379.390991 620.727173,376.746155 620.833374,374.638794 
	C621.216309,367.036896 618.186951,360.365570 613.617126,354.428314 
	C611.560181,351.755798 608.875610,351.273529 606.311279,353.748993 
	C603.803650,356.169617 601.530701,358.833405 599.156372,361.392029 
	C591.675903,369.453278 582.418579,372.104645 572.958496,368.155884 
	C563.486877,364.202301 555.857849,358.087128 555.047485,346.896545 
	C554.184814,334.984406 559.822998,325.491333 569.772583,320.864044 
	C571.579773,320.023621 573.472717,319.363586 575.261597,318.488617 
	C578.413147,316.947235 579.684875,314.675415 578.102844,311.176056 
	C574.592712,303.411621 569.102051,297.895905 560.450195,296.697571 
	C557.922302,296.347443 554.259216,296.992676 552.612183,298.659576 
	C542.419861,308.974823 535.925476,321.208344 537.705750,336.158173 
	C539.047607,347.427094 544.595337,357.194489 551.595642,366.894318 
M523.639038,169.783234 
	C518.123901,169.029373 512.503479,167.223465 507.117859,167.762909 
	C498.576019,168.618469 490.180084,170.990677 481.743866,172.819977 
	C476.143280,174.034378 473.671936,172.264511 474.186127,166.569901 
	C474.495300,163.145798 475.322998,159.634613 476.634003,156.458206 
	C482.173248,143.037308 491.927460,132.869904 502.665833,123.496475 
	C503.644257,122.642403 505.018585,120.782059 504.705750,120.207336 
	C504.019409,118.946465 502.482483,117.928352 501.071716,117.359680 
	C500.135712,116.982391 498.728729,117.330002 497.683472,117.738831 
	C490.590851,120.512871 483.432465,123.155190 476.498016,126.288582 
	C466.367035,130.866364 460.971161,139.319016 457.968781,149.737595 
	C455.614014,157.908783 457.260132,164.975708 463.314056,170.715256 
	C467.742157,174.913391 470.166473,179.664276 471.308716,185.699570 
	C473.270721,196.066177 480.939819,201.264664 491.392944,199.210403 
	C495.934875,198.317810 500.293732,195.792389 504.376984,193.397049 
	C517.330383,185.798309 527.465942,186.091385 539.549072,194.807770 
	C540.274048,195.330765 541.201233,195.573456 542.035645,195.947174 
	C545.323547,190.249451 543.629211,185.250427 539.760437,181.598297 
	C535.122925,177.220413 529.540710,173.843277 523.639038,169.783234 
M358.291138,715.550781 
	C358.514252,714.264709 359.281647,712.767822 358.877655,711.724548 
	C353.951141,699.002808 349.357758,685.841675 336.160553,679.029541 
	C320.948090,671.177185 308.220764,660.463684 297.569733,647.188232 
	C290.907471,638.884399 284.444092,630.420898 277.776337,622.121582 
	C276.441040,620.459473 274.585144,619.215698 272.969269,617.779114 
	C272.046722,620.569702 271.896820,622.750122 272.482697,624.710571 
	C278.203064,643.851929 285.486786,662.328369 296.417633,679.180176 
	C307.997650,697.032654 323.488129,710.148071 343.565277,717.538269 
	C348.440247,719.332642 353.509094,720.920288 358.291138,715.550781 
M395.522339,725.941589 
	C397.149902,725.600098 398.787476,725.300110 400.403412,724.910400 
	C410.782166,722.407532 421.004211,719.460083 429.751740,712.993591 
	C438.547668,706.491455 439.342926,702.740845 434.234436,693.220764 
	C433.057678,691.027771 431.779175,688.888977 430.620239,686.686951 
	C428.886627,683.392883 425.942871,682.442688 423.138916,684.308228 
	C420.393555,686.134827 417.956604,688.809814 416.197418,691.621277 
	C414.566803,694.227234 414.103119,697.541382 412.964630,700.481384 
	C409.583008,709.214172 409.136414,709.503052 400.058624,709.356201 
	C396.562866,709.299683 392.995880,709.554077 389.594025,708.936279 
	C386.233185,708.325989 382.890045,707.083557 379.850494,705.515015 
	C378.715759,704.929565 377.629333,702.432678 377.944366,701.159485 
	C379.602203,694.459778 389.290527,688.952026 396.227966,689.872131 
	C398.596375,690.186340 401.820618,689.805115 403.525848,688.386108 
	C411.792236,681.507141 415.527069,660.232300 410.255920,650.701965 
	C409.214569,648.819153 406.721130,647.739624 404.897369,646.289612 
	C403.607513,648.294922 401.968445,650.168152 401.143524,652.349304 
	C400.535492,653.957092 400.952484,655.967529 400.980377,657.797485 
	C401.028595,660.958740 401.341919,664.131104 401.165222,667.277527 
	C400.751404,674.645569 396.166931,678.016968 389.028503,676.326843 
	C385.314056,675.447388 381.678131,674.206360 377.940613,673.459778 
	C369.957123,671.865112 365.268494,675.361023 364.884491,683.546021 
	C364.164032,698.902588 369.911316,711.784973 380.897614,722.311279 
	C384.671326,725.926941 389.383057,727.465942 395.522339,725.941589 
M502.256989,671.746887 
	C491.633850,684.660278 478.892181,694.428589 462.411926,698.698181 
	C460.814148,699.112122 459.281006,699.814209 457.760223,700.479370 
	C453.511292,702.337769 452.543488,705.485352 454.802765,709.370667 
	C465.709106,728.126587 476.453186,729.767395 489.569153,717.317993 
	C505.338837,702.349548 517.493713,684.761047 526.463196,665.004395 
	C530.539185,656.026306 531.179565,646.341858 530.895874,636.635803 
	C530.852844,635.164551 529.314697,633.737061 528.468079,632.289307 
	C527.280640,633.306274 526.012085,634.246094 524.939453,635.372375 
	C524.397156,635.941833 524.148865,636.827209 523.869812,637.606262 
	C519.298889,650.369324 511.442932,661.063110 502.256989,671.746887 
M279.000427,697.473083 
	C265.497894,677.121521 252.064926,656.723145 238.436829,636.455994 
	C235.553635,632.168213 231.957047,628.360107 228.772552,624.433838 
	C223.320190,627.828064 225.365662,631.197998 226.920380,634.212097 
	C242.793457,664.984985 261.760162,693.837402 281.884674,721.944031 
	C283.487122,724.182007 286.354187,725.944763 289.002869,726.863647 
	C291.023956,727.564697 293.630005,726.579590 295.975830,726.344543 
	C295.449615,724.169006 295.451569,721.652344 294.305145,719.877441 
	C289.529633,712.483765 284.408447,705.313477 279.000427,697.473083 
M521.792053,208.504166 
	C519.168274,208.753235 516.544434,209.002304 513.920654,209.251373 
	C515.201904,211.611984 515.936157,214.631271 517.854614,216.224548 
	C528.957947,225.445831 536.929932,236.918640 543.436035,249.638245 
	C545.387878,253.454147 547.945312,257.048615 550.716309,260.329803 
	C553.032837,263.072937 555.778381,265.701111 558.848999,267.502258 
	C563.511108,270.237030 565.131531,269.081665 565.095886,263.796051 
	C564.998047,249.291428 559.439453,236.728210 551.354797,225.025925 
	C544.375549,214.923615 533.819397,211.299377 521.792053,208.504166 
M198.163635,390.132416 
	C194.065659,393.971588 190.382401,398.438629 185.763596,401.489227 
	C180.123505,405.214386 174.660172,402.486847 172.789719,395.932037 
	C172.155624,393.709991 172.086426,391.245178 171.072113,389.238556 
	C170.237640,387.587769 168.407852,385.394623 166.981644,385.366791 
	C165.384979,385.335632 162.747787,387.184296 162.305939,388.717224 
	C160.759033,394.084015 159.488205,399.625000 158.994797,405.178253 
	C158.285736,413.158447 161.838043,419.879364 168.831848,423.304321 
	C175.938110,426.784302 183.318939,424.011780 188.521851,418.848083 
	C194.952042,412.466400 200.242340,404.922607 205.895447,397.778290 
	C208.090149,395.004669 206.909561,392.754700 204.004318,391.402954 
	C202.387009,390.650482 200.578186,390.309601 198.163635,390.132416 
M491.825317,341.017853 
	C492.698181,336.781464 490.797791,333.662018 487.863190,330.883911 
	C481.871643,325.211792 474.376709,322.604980 466.538239,322.649811 
	C461.500519,322.678619 454.904022,323.918579 451.883972,327.235718 
	C448.761444,330.665497 445.654114,333.191315 441.702057,335.117706 
	C438.266846,336.792236 435.404327,339.379272 437.057922,343.259888 
	C438.711151,347.139801 442.385376,344.823639 444.809296,343.808807 
	C453.901184,340.002319 462.935211,338.600586 472.281982,342.763763 
	C472.953552,343.062897 473.844940,342.868500 474.890167,342.914978 
	C475.116699,340.499817 475.321320,338.317932 475.703583,334.242188 
	C481.188080,338.681122 485.527466,342.193268 489.785492,345.639557 
	C490.432587,345.077148 490.794403,344.915375 490.881104,344.660126 
	C491.201172,343.717896 491.430267,342.744751 491.825317,341.017853 
M431.744843,448.274231 
	C431.022583,440.916931 427.991608,437.177856 422.722778,436.078766 
	C421.809631,441.982086 420.822876,447.925049 420.017700,453.892456 
	C419.831421,455.273132 419.765106,457.306793 420.556030,458.002289 
	C421.337311,458.689301 423.343140,458.323242 424.690796,457.964630 
	C429.188171,456.767883 430.625793,453.048767 431.744843,448.274231 
M466.249542,352.313507 
	C464.477875,349.238251 462.631226,345.894897 458.326263,348.250305 
	C455.064392,350.035004 454.845734,354.694183 457.886322,357.597351 
	C459.128387,358.783264 462.292297,360.103943 462.672668,359.674042 
	C464.343994,357.785156 465.317474,355.278809 466.249542,352.313507 
z"/>
<path fill="#FEFEFF" opacity="1.000000" stroke="none" 
	d="
M398.329346,525.770142 
	C388.821960,523.393555 379.697998,521.409607 370.331909,523.985962 
	C366.519989,525.034546 361.213196,525.940002 361.690002,530.526428 
	C361.946167,532.990417 366.855408,536.273865 370.072998,536.830872 
	C375.308136,537.737183 380.966675,537.248962 386.285095,536.371216 
	C393.832031,535.125610 401.174164,534.994385 408.499451,537.227112 
	C421.325897,541.136719 426.042664,553.344788 419.044983,564.894165 
	C414.715393,572.040039 408.139832,576.393188 399.878510,576.853149 
	C386.415466,577.602844 372.910126,577.630493 359.420593,577.816345 
	C357.862488,577.837769 356.215454,577.096313 354.738190,576.425476 
	C338.461395,569.033997 324.983795,557.628845 311.618683,546.100464 
	C304.933899,540.334351 298.508911,534.267883 291.877594,528.438354 
	C289.828918,526.637390 287.487274,525.169739 284.275574,524.280762 
	C284.539520,525.621643 284.594910,527.046753 285.097748,528.291077 
	C299.069794,562.863647 321.673096,589.733093 356.474274,604.370483 
	C367.118927,608.847656 379.345917,609.644287 390.902313,611.842224 
	C397.961975,613.184937 399.767395,615.491760 396.827728,621.947754 
	C394.499176,627.061523 391.886841,632.293274 388.293365,636.534668 
	C379.595490,646.800842 370.616882,656.890015 361.045837,666.335571 
	C353.960083,673.328552 349.434814,673.114258 340.941589,667.879517 
	C311.105103,649.489990 289.231873,624.023987 272.860687,593.186401 
	C264.972504,578.327820 262.568542,563.704529 267.921936,547.716797 
	C271.298096,537.634033 273.859955,527.269409 277.470276,517.278137 
	C279.162262,512.595703 278.807465,508.838501 276.702881,504.553528 
	C269.426666,489.739166 264.006104,474.268982 261.611755,457.874847 
	C261.013611,453.779297 261.152802,449.580170 260.844177,445.436737 
	C260.664124,443.019775 260.268005,440.618896 259.757629,436.506775 
	C256.757080,439.649750 254.620758,441.575073 252.855667,443.795532 
	C247.761078,450.204468 240.421997,450.401855 236.444824,443.189301 
	C231.146210,433.580322 230.307129,422.892914 233.089371,412.288239 
	C233.752960,409.758881 236.450882,407.305267 238.828888,405.771576 
	C245.361069,401.558624 248.202530,395.874634 248.026718,388.165741 
	C247.517624,365.843384 247.424271,343.510223 246.762146,321.193329 
	C246.488419,311.966614 248.060287,303.372650 252.124664,295.134857 
	C253.962112,291.410645 255.361176,287.468414 257.230560,283.762024 
	C262.190369,273.928314 264.608398,263.801666 264.157166,252.554565 
	C263.541626,237.213684 266.769257,222.378357 274.975983,209.085114 
	C285.663605,191.773346 301.428070,182.375839 321.521210,180.030609 
	C329.458954,179.104126 337.397400,178.181656 345.341583,177.312836 
	C357.233765,176.012222 369.033325,176.247574 380.185333,181.123901 
	C396.636292,188.317215 413.572540,188.828415 431.078674,186.415543 
	C452.617371,183.446854 471.119965,195.188049 475.215668,214.992767 
	C476.782440,222.568970 476.389221,231.130173 474.589233,238.695297 
	C471.406097,252.073715 474.985504,263.158844 482.334045,273.896698 
	C485.798004,278.958374 488.860779,284.307373 491.904114,289.640961 
	C495.786163,296.444366 495.793182,303.558075 493.123505,310.801636 
	C490.912689,316.800079 489.552582,317.461182 484.091278,314.175812 
	C473.552277,307.835876 462.166962,305.121490 450.103760,307.109344 
	C434.192749,309.731232 419.862122,316.470642 407.804840,327.132599 
	C399.434479,334.534332 399.345001,345.271912 399.627136,355.444641 
	C399.786194,361.180359 401.277466,366.942841 402.677338,372.566650 
	C405.269470,382.980530 406.532898,393.337128 405.373840,404.158234 
	C403.904572,417.875458 403.635498,431.587067 407.189453,445.277313 
	C409.496490,454.164246 402.119812,462.506409 393.563507,462.109680 
	C388.600403,461.879608 385.232880,459.625885 383.740753,454.518372 
	C382.500122,450.271820 380.970764,446.010040 378.852478,442.148224 
	C376.845032,438.488586 373.499634,437.918488 370.020111,440.696960 
	C366.268188,443.693054 362.525482,446.700653 358.645538,449.809937 
	C357.795532,448.752075 357.005157,448.077820 356.611847,447.221283 
	C355.401642,444.585571 353.186401,442.762970 350.782898,444.377655 
	C348.793091,445.714386 346.782532,448.629456 346.705048,450.910645 
	C346.441803,458.658447 357.323669,466.876617 364.834473,465.074493 
	C367.252502,464.494354 369.699005,463.843781 371.960114,462.837891 
	C376.867950,460.654541 380.301270,462.267944 382.896454,466.572998 
	C383.753448,467.994629 384.504669,469.485931 385.436615,470.855316 
	C388.897278,475.940460 391.765442,476.208282 397.269745,473.634827 
	C400.538361,472.106567 404.471558,471.848938 408.152527,471.419220 
	C409.898132,471.215454 411.814270,471.749023 413.547546,472.288147 
	C421.199585,474.668335 427.238190,473.765320 431.814667,466.023834 
	C434.176056,462.029327 438.855164,459.481384 442.008484,455.862823 
	C448.752930,448.123291 448.741028,442.489197 442.086945,434.650238 
	C438.056915,429.902527 436.045837,424.773682 435.623291,418.416931 
	C434.930176,407.990356 433.257416,397.622803 431.822296,387.254669 
	C431.264008,383.221283 431.992157,380.997589 436.740784,380.749664 
	C438.896851,380.637085 441.337860,378.932678 442.827118,377.230621 
	C443.296936,376.693726 441.369080,373.582275 440.055237,372.068695 
	C437.880554,369.563416 435.267273,367.444519 432.924011,365.078461 
	C429.979584,362.105286 430.284393,359.191589 433.348450,356.487946 
	C434.219849,355.719055 435.152985,355.010742 436.109161,354.348816 
	C443.170197,349.460938 444.037048,349.832062 445.126007,358.160522 
	C446.302368,367.157349 453.591522,373.808624 462.345734,373.873291 
	C471.478760,373.940796 479.555359,366.212219 480.852966,356.146271 
	C481.097748,354.247589 481.284515,352.341461 481.508392,350.346375 
	C490.652649,352.856873 493.023956,358.139038 488.732239,365.664886 
	C484.713593,372.711884 479.534210,378.134216 470.762573,379.173492 
	C467.122070,379.604797 463.637268,381.350067 460.190979,382.462494 
	C460.412811,383.654175 460.372589,384.167877 460.543762,384.252197 
	C466.318634,387.095703 467.691833,390.571411 463.797028,396.477600 
	C461.522614,399.926605 466.399231,404.912231 470.879395,403.667480 
	C481.272736,400.779846 490.115234,395.242432 496.071930,386.039337 
	C497.395844,383.993866 497.117493,380.928131 497.643982,378.345886 
	C498.501587,374.139679 498.945374,369.769836 500.428894,365.791687 
	C502.092529,361.330750 504.855804,361.107178 507.662354,365.008881 
	C512.677063,371.980377 513.187073,380.186737 511.347961,387.989410 
	C507.554047,404.085693 504.509033,420.192780 504.614166,436.793060 
	C504.627838,438.947571 504.437866,441.147675 503.991211,443.252167 
	C502.825256,448.745636 502.271362,454.554993 500.036774,459.602386 
	C491.923309,477.928619 481.922638,495.156677 468.372742,510.148499 
	C464.148560,514.822144 459.213135,512.890625 454.510803,512.119568 
	C450.091339,511.394897 449.875793,507.530945 449.682068,503.931854 
	C449.610657,502.605499 449.452972,501.269623 449.180023,499.970551 
	C447.327332,491.152069 444.152008,489.130341 436.495117,492.876282 
	C436.048492,493.094757 435.514130,493.162048 435.108337,493.431732 
	C428.890869,497.564453 423.438324,496.430847 417.382996,492.279297 
	C407.692505,485.635529 404.035278,486.354553 395.499390,494.372375 
	C387.900787,501.509796 386.859985,501.479675 379.265564,494.035767 
	C377.839996,492.638428 376.398041,491.240143 374.837067,490.001862 
	C369.806244,486.011047 366.639618,485.955414 361.319824,489.675598 
	C360.229309,490.438171 359.153564,491.244446 358.180634,492.148590 
	C354.019012,496.015900 349.459503,496.664551 344.443878,493.974823 
	C334.941254,488.878876 332.489502,492.492096 329.312622,501.299164 
	C328.803223,502.711273 329.684326,505.312347 330.834290,506.399567 
	C331.631989,507.153778 334.622375,506.895477 335.550293,505.985474 
	C340.263458,501.363190 344.412415,502.253723 348.729034,506.421478 
	C353.407257,510.938385 358.693970,511.848267 364.681366,508.996277 
	C370.588257,506.182617 376.541260,505.560913 382.916931,508.121002 
	C388.971497,510.552246 394.702728,507.698456 400.261139,505.538605 
	C406.216248,503.224640 411.989014,502.111969 418.045929,505.289490 
	C425.750366,509.331268 426.955811,516.213806 420.734314,522.252991 
	C417.106232,525.774719 412.757263,527.697998 407.623688,527.213257 
	C404.649078,526.932373 401.705139,526.326904 398.329346,525.770142 
M263.226807,356.781250 
	C267.080444,361.030701 271.362488,363.956360 277.632233,362.932770 
	C278.854431,362.733215 280.857544,364.592743 281.807617,365.977783 
	C284.324432,369.646912 285.941132,374.043091 288.862488,377.301422 
	C294.343292,383.414368 302.152161,381.920563 305.212402,374.460938 
	C304.512207,374.125641 303.800446,373.782806 303.087006,373.443420 
	C297.540131,370.804474 293.398132,364.086304 293.941956,358.609161 
	C294.323883,354.762848 299.643707,348.605835 302.502808,349.347717 
	C307.315552,350.596619 304.499451,354.813965 305.113190,357.714447 
	C305.146637,357.872375 305.109222,358.046417 305.098175,358.212524 
	C304.615265,365.484436 309.673767,368.903687 314.975159,371.856415 
	C320.250427,374.794617 325.727844,376.306122 331.276855,372.006042 
	C337.787476,366.960754 342.651855,361.261139 341.113647,352.202545 
	C340.895050,350.914978 341.710144,349.451843 342.046814,348.069977 
	C343.584106,348.445282 345.338165,348.467529 346.622101,349.255585 
	C352.987610,353.162811 353.646393,356.198059 349.777466,362.881470 
	C347.747192,366.388611 345.596252,369.825928 343.341949,373.556000 
	C353.619324,378.416870 357.377045,367.753998 365.643860,365.655396 
	C365.643860,369.076813 366.301941,372.119202 365.496674,374.706024 
	C364.132568,379.087921 361.684875,383.119720 360.000793,387.419342 
	C358.884399,390.269592 356.831543,393.932220 357.752930,396.187225 
	C360.909088,403.911682 364.841583,411.390106 369.199188,418.521698 
	C371.302856,421.964569 374.329071,421.265106 374.919739,417.158325 
	C375.757477,411.333557 376.220184,405.185791 375.282349,399.430359 
	C373.292755,387.220184 371.468628,375.194092 375.777496,363.126923 
	C376.330475,361.578369 376.486969,359.884216 376.787872,358.250275 
	C379.175415,345.283905 376.370789,334.135345 365.189758,326.119202 
	C359.255981,321.865051 353.500549,317.139618 347.027527,313.899811 
	C322.938507,301.843079 299.443176,304.624603 277.734833,319.537689 
	C265.327148,328.061462 260.729065,341.098877 263.226807,356.781250 
z"/>
<path fill="#FDFEFE" opacity="1.000000" stroke="none" 
	d="
M435.867493,606.977051 
	C459.909058,597.185791 481.713776,584.513977 498.884979,565.261658 
	C504.658722,558.788147 508.729187,550.777100 513.425232,543.371765 
	C514.837158,541.145264 515.533997,538.465698 516.943115,536.236877 
	C517.727234,534.996521 519.304016,534.257263 520.523560,533.292114 
	C521.368286,534.450684 522.635132,535.497131 522.978394,536.788940 
	C523.997925,540.625793 524.858032,544.530334 525.413269,548.460327 
	C527.039001,559.969299 528.562927,571.494080 529.977051,583.031006 
	C530.898315,590.547058 529.300476,597.817505 525.547424,604.197205 
	C518.483887,616.204407 511.967957,628.825012 503.097382,639.407715 
	C490.600769,654.316345 473.321259,663.208984 455.153290,669.706787 
	C451.620300,670.970398 445.938782,670.315552 442.948090,668.172974 
	C436.299438,663.409729 429.528931,657.957886 425.004089,651.295349 
	C418.629059,641.908569 414.089142,631.246033 409.073517,620.978088 
	C406.693298,616.105347 407.536896,614.628784 412.866089,613.105896 
	C420.368378,610.962036 427.944153,609.075317 435.867493,606.977051 
z"/>
<path fill="#FBFCFE" opacity="1.000000" stroke="none" 
	d="
M301.028625,133.203629 
	C298.473267,129.024048 295.230560,127.258972 290.459778,127.889328 
	C285.522644,128.541672 280.494415,128.690002 275.506958,128.677902 
	C273.725006,128.673584 271.945770,127.555344 270.165283,126.945541 
	C270.951996,125.248291 271.334564,123.135773 272.586884,121.916954 
	C287.953430,106.961647 308.027649,104.948837 326.591339,115.666031 
	C333.128052,119.439766 340.214478,123.240067 347.486908,124.494453 
	C355.270355,125.836975 363.693787,124.948975 371.609558,123.646713 
	C380.270142,122.221916 387.726166,123.716362 394.734314,128.654541 
	C397.315582,130.473404 399.927155,132.249664 402.538361,134.025574 
	C412.263550,140.639740 413.240753,150.181213 411.339386,160.613800 
	C411.082092,162.025452 410.352692,163.464462 409.491760,164.632751 
	C406.020721,169.343002 403.703217,169.219513 400.681152,164.278717 
	C399.728943,162.721893 398.476837,161.201202 398.053650,159.492661 
	C395.776489,150.299149 388.755188,145.470840 381.083527,141.809830 
	C373.205505,138.050354 364.935638,134.972931 356.591248,132.392639 
	C352.832153,131.230240 347.532227,130.733734 345.633087,135.576324 
	C343.697968,140.510696 348.773834,142.243851 351.782562,144.513199 
	C354.824280,146.807419 358.323212,148.492935 361.382751,150.766815 
	C363.999298,152.711456 368.459351,154.466919 365.927277,158.735611 
	C363.308533,163.150421 359.261108,161.141830 355.825897,159.202866 
	C352.354828,157.243668 348.951935,155.155090 345.591888,153.009384 
	C335.950684,146.852585 325.136810,144.416840 314.006531,143.087250 
	C304.544006,141.956909 296.718445,145.967148 289.831573,151.824524 
	C281.422180,158.976776 273.819946,166.849991 269.912811,177.594452 
	C269.517639,178.681183 267.551880,179.776367 266.260162,179.845688 
	C262.783295,180.032242 259.277802,179.629089 255.781769,179.525406 
	C245.821838,179.230011 238.873962,183.970993 236.106323,193.562836 
	C234.639236,198.647339 234.096451,203.992538 232.992386,209.189468 
	C231.876526,214.441910 228.630783,218.034668 223.836212,220.328598 
	C217.533936,223.343842 211.134277,219.182846 212.053131,212.268494 
	C212.497894,208.921738 213.726532,205.340820 215.633698,202.579773 
	C232.164963,178.647110 252.928314,159.904724 280.803497,149.863510 
	C289.288422,146.807068 297.244720,142.630615 301.028625,133.203629 
z"/>
<path fill="#FCFDFE" opacity="1.000000" stroke="none" 
	d="
M551.363403,366.619812 
	C544.595337,357.194489 539.047607,347.427094 537.705750,336.158173 
	C535.925476,321.208344 542.419861,308.974823 552.612183,298.659576 
	C554.259216,296.992676 557.922302,296.347443 560.450195,296.697571 
	C569.102051,297.895905 574.592712,303.411621 578.102844,311.176056 
	C579.684875,314.675415 578.413147,316.947235 575.261597,318.488617 
	C573.472717,319.363586 571.579773,320.023621 569.772583,320.864044 
	C559.822998,325.491333 554.184814,334.984406 555.047485,346.896545 
	C555.857849,358.087128 563.486877,364.202301 572.958496,368.155884 
	C582.418579,372.104645 591.675903,369.453278 599.156372,361.392029 
	C601.530701,358.833405 603.803650,356.169617 606.311279,353.748993 
	C608.875610,351.273529 611.560181,351.755798 613.617126,354.428314 
	C618.186951,360.365570 621.216309,367.036896 620.833374,374.638794 
	C620.727173,376.746155 619.083923,379.390991 617.332031,380.700165 
	C606.386414,388.879730 594.053955,391.410706 580.998352,387.327972 
	C569.201233,383.638794 558.958313,377.211365 551.363403,366.619812 
z"/>
<path fill="#FBFDFE" opacity="1.000000" stroke="none" 
	d="
M524.003296,169.908005 
	C529.540710,173.843277 535.122925,177.220413 539.760437,181.598297 
	C543.629211,185.250427 545.323547,190.249451 542.035645,195.947174 
	C541.201233,195.573456 540.274048,195.330765 539.549072,194.807770 
	C527.465942,186.091385 517.330383,185.798309 504.376984,193.397049 
	C500.293732,195.792389 495.934875,198.317810 491.392944,199.210403 
	C480.939819,201.264664 473.270721,196.066177 471.308716,185.699570 
	C470.166473,179.664276 467.742157,174.913391 463.314056,170.715256 
	C457.260132,164.975708 455.614014,157.908783 457.968781,149.737595 
	C460.971161,139.319016 466.367035,130.866364 476.498016,126.288582 
	C483.432465,123.155190 490.590851,120.512871 497.683472,117.738831 
	C498.728729,117.330002 500.135712,116.982391 501.071716,117.359680 
	C502.482483,117.928352 504.019409,118.946465 504.705750,120.207336 
	C505.018585,120.782059 503.644257,122.642403 502.665833,123.496475 
	C491.927460,132.869904 482.173248,143.037308 476.634003,156.458206 
	C475.322998,159.634613 474.495300,163.145798 474.186127,166.569901 
	C473.671936,172.264511 476.143280,174.034378 481.743866,172.819977 
	C490.180084,170.990677 498.576019,168.618469 507.117859,167.762909 
	C512.503479,167.223465 518.123901,169.029373 524.003296,169.908005 
z"/>
<path fill="#FCFDFE" opacity="1.000000" stroke="none" 
	d="
M358.100403,715.907288 
	C353.509094,720.920288 348.440247,719.332642 343.565277,717.538269 
	C323.488129,710.148071 307.997650,697.032654 296.417633,679.180176 
	C285.486786,662.328369 278.203064,643.851929 272.482697,624.710571 
	C271.896820,622.750122 272.046722,620.569702 272.969269,617.779114 
	C274.585144,619.215698 276.441040,620.459473 277.776337,622.121582 
	C284.444092,630.420898 290.907471,638.884399 297.569733,647.188232 
	C308.220764,660.463684 320.948090,671.177185 336.160553,679.029541 
	C349.357758,685.841675 353.951141,699.002808 358.877655,711.724548 
	C359.281647,712.767822 358.514252,714.264709 358.100403,715.907288 
z"/>
<path fill="#FAFCFD" opacity="1.000000" stroke="none" 
	d="
M395.114166,725.991821 
	C389.383057,727.465942 384.671326,725.926941 380.897614,722.311279 
	C369.911316,711.784973 364.164032,698.902588 364.884491,683.546021 
	C365.268494,675.361023 369.957123,671.865112 377.940613,673.459778 
	C381.678131,674.206360 385.314056,675.447388 389.028503,676.326843 
	C396.166931,678.016968 400.751404,674.645569 401.165222,667.277527 
	C401.341919,664.131104 401.028595,660.958740 400.980377,657.797485 
	C400.952484,655.967529 400.535492,653.957092 401.143524,652.349304 
	C401.968445,650.168152 403.607513,648.294922 404.897369,646.289612 
	C406.721130,647.739624 409.214569,648.819153 410.255920,650.701965 
	C415.527069,660.232300 411.792236,681.507141 403.525848,688.386108 
	C401.820618,689.805115 398.596375,690.186340 396.227966,689.872131 
	C389.290527,688.952026 379.602203,694.459778 377.944366,701.159485 
	C377.629333,702.432678 378.715759,704.929565 379.850494,705.515015 
	C382.890045,707.083557 386.233185,708.325989 389.594025,708.936279 
	C392.995880,709.554077 396.562866,709.299683 400.058624,709.356201 
	C409.136414,709.503052 409.583008,709.214172 412.964630,700.481384 
	C414.103119,697.541382 414.566803,694.227234 416.197418,691.621277 
	C417.956604,688.809814 420.393555,686.134827 423.138916,684.308228 
	C425.942871,682.442688 428.886627,683.392883 430.620239,686.686951 
	C431.779175,688.888977 433.057678,691.027771 434.234436,693.220764 
	C439.342926,702.740845 438.547668,706.491455 429.751740,712.993591 
	C421.004211,719.460083 410.782166,722.407532 400.403412,724.910400 
	C398.787476,725.300110 397.149902,725.600098 395.114166,725.991821 
z"/>
<path fill="#FCFDFE" opacity="1.000000" stroke="none" 
	d="
M502.493896,671.483276 
	C511.442932,661.063110 519.298889,650.369324 523.869812,637.606262 
	C524.148865,636.827209 524.397156,635.941833 524.939453,635.372375 
	C526.012085,634.246094 527.280640,633.306274 528.468079,632.289307 
	C529.314697,633.737061 530.852844,635.164551 530.895874,636.635803 
	C531.179565,646.341858 530.539185,656.026306 526.463196,665.004395 
	C517.493713,684.761047 505.338837,702.349548 489.569153,717.317993 
	C476.453186,729.767395 465.709106,728.126587 454.802765,709.370667 
	C452.543488,705.485352 453.511292,702.337769 457.760223,700.479370 
	C459.281006,699.814209 460.814148,699.112122 462.411926,698.698181 
	C478.892181,694.428589 491.633850,684.660278 502.493896,671.483276 
z"/>
<path fill="#FAFCFD" opacity="1.000000" stroke="none" 
	d="
M279.207214,697.767151 
	C284.408447,705.313477 289.529633,712.483765 294.305145,719.877441 
	C295.451569,721.652344 295.449615,724.169006 295.975830,726.344543 
	C293.630005,726.579590 291.023956,727.564697 289.002869,726.863647 
	C286.354187,725.944763 283.487122,724.182007 281.884674,721.944031 
	C261.760162,693.837402 242.793457,664.984985 226.920380,634.212097 
	C225.365662,631.197998 223.320190,627.828064 228.772552,624.433838 
	C231.957047,628.360107 235.553635,632.168213 238.436829,636.455994 
	C252.064926,656.723145 265.497894,677.121521 279.207214,697.767151 
z"/>
<path fill="#FBFDFE" opacity="1.000000" stroke="none" 
	d="
M522.196777,208.639496 
	C533.819397,211.299377 544.375549,214.923615 551.354797,225.025925 
	C559.439453,236.728210 564.998047,249.291428 565.095886,263.796051 
	C565.131531,269.081665 563.511108,270.237030 558.848999,267.502258 
	C555.778381,265.701111 553.032837,263.072937 550.716309,260.329803 
	C547.945312,257.048615 545.387878,253.454147 543.436035,249.638245 
	C536.929932,236.918640 528.957947,225.445831 517.854614,216.224548 
	C515.936157,214.631271 515.201904,211.611984 513.920654,209.251373 
	C516.544434,209.002304 519.168274,208.753235 522.196777,208.639496 
z"/>
<path fill="#FBFCFE" opacity="1.000000" stroke="none" 
	d="
M198.509659,389.957825 
	C200.578186,390.309601 202.387009,390.650482 204.004318,391.402954 
	C206.909561,392.754700 208.090149,395.004669 205.895447,397.778290 
	C200.242340,404.922607 194.952042,412.466400 188.521851,418.848083 
	C183.318939,424.011780 175.938110,426.784302 168.831848,423.304321 
	C161.838043,419.879364 158.285736,413.158447 158.994797,405.178253 
	C159.488205,399.625000 160.759033,394.084015 162.305939,388.717224 
	C162.747787,387.184296 165.384979,385.335632 166.981644,385.366791 
	C168.407852,385.394623 170.237640,387.587769 171.072113,389.238556 
	C172.086426,391.245178 172.155624,393.709991 172.789719,395.932037 
	C174.660172,402.486847 180.123505,405.214386 185.763596,401.489227 
	C190.382401,398.438629 194.065659,393.971588 198.509659,389.957825 
z"/>
<path fill="#FAFCFD" opacity="1.000000" stroke="none" 
	d="
M491.759430,341.400513 
	C491.430267,342.744751 491.201172,343.717896 490.881104,344.660126 
	C490.794403,344.915375 490.432587,345.077148 489.785492,345.639557 
	C485.527466,342.193268 481.188080,338.681122 475.703583,334.242188 
	C475.321320,338.317932 475.116699,340.499817 474.890167,342.914978 
	C473.844940,342.868500 472.953552,343.062897 472.281982,342.763763 
	C462.935211,338.600586 453.901184,340.002319 444.809296,343.808807 
	C442.385376,344.823639 438.711151,347.139801 437.057922,343.259888 
	C435.404327,339.379272 438.266846,336.792236 441.702057,335.117706 
	C445.654114,333.191315 448.761444,330.665497 451.883972,327.235718 
	C454.904022,323.918579 461.500519,322.678619 466.538239,322.649811 
	C474.376709,322.604980 481.871643,325.211792 487.863190,330.883911 
	C490.797791,333.662018 492.698181,336.781464 491.759430,341.400513 
z"/>
<path fill="#F4F8FB" opacity="1.000000" stroke="none" 
	d="
M431.681641,448.661346 
	C430.625793,453.048767 429.188171,456.767883 424.690796,457.964630 
	C423.343140,458.323242 421.337311,458.689301 420.556030,458.002289 
	C419.765106,457.306793 419.831421,455.273132 420.017700,453.892456 
	C420.822876,447.925049 421.809631,441.982086 422.722778,436.078766 
	C427.991608,437.177856 431.022583,440.916931 431.681641,448.661346 
z"/>
<path fill="#F7FAFC" opacity="1.000000" stroke="none" 
	d="
M466.396729,352.654907 
	C465.317474,355.278809 464.343994,357.785156 462.672668,359.674042 
	C462.292297,360.103943 459.128387,358.783264 457.886322,357.597351 
	C454.845734,354.694183 455.064392,350.035004 458.326263,348.250305 
	C462.631226,345.894897 464.477875,349.238251 466.396729,352.654907 
z"/>
<path fill="#0461A9" opacity="1.000000" stroke="none" 
	d="
M262.957764,356.482758 
	C260.729065,341.098877 265.327148,328.061462 277.734833,319.537689 
	C299.443176,304.624603 322.938507,301.843079 347.027527,313.899811 
	C353.500549,317.139618 359.255981,321.865051 365.189758,326.119202 
	C376.370789,334.135345 379.175415,345.283905 376.787872,358.250275 
	C376.486969,359.884216 376.330475,361.578369 375.777496,363.126923 
	C371.468628,375.194092 373.292755,387.220184 375.282349,399.430359 
	C376.220184,405.185791 375.757477,411.333557 374.919739,417.158325 
	C374.329071,421.265106 371.302856,421.964569 369.199188,418.521698 
	C364.841583,411.390106 360.909088,403.911682 357.752930,396.187225 
	C356.831543,393.932220 358.884399,390.269592 360.000793,387.419342 
	C361.684875,383.119720 364.132568,379.087921 365.496674,374.706024 
	C366.301941,372.119202 365.643860,369.076813 365.643860,365.655396 
	C357.377045,367.753998 353.619324,378.416870 343.341949,373.556000 
	C345.596252,369.825928 347.747192,366.388611 349.777466,362.881470 
	C353.646393,356.198059 352.987610,353.162811 346.622101,349.255585 
	C345.338165,348.467529 343.584106,348.445282 342.046814,348.069977 
	C341.710144,349.451843 340.895050,350.914978 341.113647,352.202545 
	C342.651855,361.261139 337.787476,366.960754 331.276855,372.006042 
	C325.727844,376.306122 320.250427,374.794617 314.975159,371.856415 
	C309.673767,368.903687 304.615265,365.484436 305.098175,358.212524 
	C305.109222,358.046417 305.146637,357.872375 305.113190,357.714447 
	C304.499451,354.813965 307.315552,350.596619 302.502808,349.347717 
	C299.643707,348.605835 294.323883,354.762848 293.941956,358.609161 
	C293.398132,364.086304 297.540131,370.804474 303.087006,373.443420 
	C303.800446,373.782806 304.512207,374.125641 305.212402,374.460938 
	C302.152161,381.920563 294.343292,383.414368 288.862488,377.301422 
	C285.941132,374.043091 284.324432,369.646912 281.807617,365.977783 
	C280.857544,364.592743 278.854431,362.733215 277.632233,362.932770 
	C271.362488,363.956360 267.080444,361.030701 262.957764,356.482758 
M317.120789,317.071381 
	C311.843048,317.058716 306.448273,316.332214 301.310699,317.174530 
	C288.654449,319.249573 280.368195,327.030304 276.760529,339.189758 
	C276.073608,341.505127 277.773743,345.221924 279.504730,347.386932 
	C281.692993,350.123901 284.725433,348.443909 287.033295,346.627838 
	C289.515839,344.674286 291.642395,342.227142 294.254089,340.491669 
	C296.413879,339.056488 299.053833,338.343903 301.840515,337.158173 
	C302.476837,340.406128 302.877930,342.453430 303.222321,344.211395 
	C310.296326,343.186188 317.001007,342.214508 324.075348,341.189270 
	C323.766022,338.992249 323.433075,336.627472 322.878113,332.685760 
	C328.817169,334.728943 333.731110,336.419464 338.749390,338.145874 
	C339.765289,332.156830 337.136139,327.830170 332.881470,324.989105 
	C328.244659,321.892944 322.934174,319.805603 317.120789,317.071381 
M315.993500,352.543579 
	C316.141144,356.478027 317.701782,359.589905 322.007751,359.461273 
	C325.607941,359.353699 327.255493,356.200623 326.813019,353.137848 
	C326.477051,350.812164 324.825226,347.464233 322.981567,346.829651 
	C319.506409,345.633484 316.629456,347.637482 315.993500,352.543579 
z"/>
<path fill="#FBFCFE" opacity="1.000000" stroke="none" 
	d="
M317.519104,317.174927 
	C322.934174,319.805603 328.244659,321.892944 332.881470,324.989105 
	C337.136139,327.830170 339.765289,332.156830 338.749390,338.145874 
	C333.731110,336.419464 328.817169,334.728943 322.878113,332.685760 
	C323.433075,336.627472 323.766022,338.992249 324.075348,341.189270 
	C317.001007,342.214508 310.296326,343.186188 303.222321,344.211395 
	C302.877930,342.453430 302.476837,340.406128 301.840515,337.158173 
	C299.053833,338.343903 296.413879,339.056488 294.254089,340.491669 
	C291.642395,342.227142 289.515839,344.674286 287.033295,346.627838 
	C284.725433,348.443909 281.692993,350.123901 279.504730,347.386932 
	C277.773743,345.221924 276.073608,341.505127 276.760529,339.189758 
	C280.368195,327.030304 288.654449,319.249573 301.310699,317.174530 
	C306.448273,316.332214 311.843048,317.058716 317.519104,317.174927 
z"/>
<path fill="#F2F7FB" opacity="1.000000" stroke="none" 
	d="
M316.014221,352.144348 
	C316.629456,347.637482 319.506409,345.633484 322.981567,346.829651 
	C324.825226,347.464233 326.477051,350.812164 326.813019,353.137848 
	C327.255493,356.200623 325.607941,359.353699 322.007751,359.461273 
	C317.701782,359.589905 316.141144,356.478027 316.014221,352.144348 
z"/>
</svg>