<svg version="1.1" id="Layer_1" xmlns="http://www.w3.org/2000/svg" xmlns:xlink="http://www.w3.org/1999/xlink" x="0px" y="0px"
	 width="100%" viewBox="0 0 200 200" enable-background="new 0 0 200 200" xml:space="preserve">
<path fill="#262626" opacity="1.000000" stroke="none" 
	d="
M108.000000,1.000000 
	C108.750000,1.000000 109.500000,1.000000 110.736298,1.342022 
	C135.732178,12.764171 160.209457,23.916988 184.790451,34.836327 
	C188.017334,36.269772 189.134216,37.880753 189.108612,41.419392 
	C188.937653,65.050270 189.018356,88.682983 189.017792,112.315094 
	C189.017410,128.446701 189.017715,144.578293 189.017715,160.774338 
	C187.804260,161.305206 186.754089,161.786591 185.687424,162.228119 
	C154.459274,175.154510 123.229507,188.076935 92.000000,201.000000 
	C91.555664,201.000000 91.111328,201.000000 90.240860,200.654755 
	C88.791046,199.769775 87.792458,199.174561 86.739975,198.698486 
	C63.290478,188.091675 39.867233,177.425476 16.344812,166.982727 
	C12.954515,165.477600 11.866178,163.704208 11.882174,159.976913 
	C12.045752,121.864792 12.034305,83.751511 11.898228,45.639175 
	C11.885617,42.107071 12.917914,40.473206 16.238997,39.147377 
	C35.200939,31.577459 54.076870,23.789682 72.932114,15.955795 
	C84.666992,11.080241 96.313713,5.992507 108.000000,1.000000 
M124.005264,121.581528 
	C142.372604,114.010384 160.739960,106.439247 179.437775,98.731888 
	C178.547989,98.095825 178.181259,97.729927 177.739273,97.532608 
	C155.727295,87.706009 133.733490,77.837433 111.640823,68.195435 
	C110.009857,67.483627 107.468231,67.934647 105.676918,68.656448 
	C87.179825,76.109749 68.745468,83.718994 50.303482,91.308723 
	C40.853100,95.197990 31.422585,99.135536 21.299936,103.334648 
	C44.606583,113.730530 67.054451,123.799217 89.588799,133.670486 
	C91.109329,134.336563 93.455940,133.959366 95.122803,133.309418 
	C104.564285,129.627991 113.915634,125.715416 124.005264,121.581528 
M88.682808,172.499557 
	C88.723885,163.508011 88.546593,154.507706 88.907288,145.529007 
	C89.064301,141.620422 87.857986,139.699112 84.235275,138.127426 
	C63.662544,129.202133 43.211079,119.997406 22.711523,110.903152 
	C21.414421,110.327705 20.059620,109.882317 18.379948,109.242439 
	C18.379948,126.668243 18.379948,143.591949 18.379948,160.873611 
	C41.522854,171.311447 64.840065,181.827896 88.683083,192.581482 
	C88.683083,185.481842 88.683083,179.490479 88.682808,172.499557 
M183.038879,75.497177 
	C183.022644,65.668526 182.810516,55.834290 183.090744,46.014099 
	C183.196396,42.311478 182.112854,40.485683 178.668945,38.964134 
	C157.988754,29.827410 137.427704,20.421122 116.817749,11.125048 
	C115.658615,10.602226 114.419853,10.255954 112.542030,9.586443 
	C112.542030,26.465740 112.458931,42.760471 112.692978,59.050652 
	C112.712616,60.417351 114.597763,62.320484 116.068504,63.010994 
	C125.094337,67.248558 134.253418,71.201935 143.362488,75.262604 
	C156.380783,81.065933 169.394211,86.880165 183.038879,92.970573 
	C183.038879,87.030891 183.038879,81.763123 183.038879,75.497177 
M106.297569,26.653688 
	C106.150864,25.781715 106.004158,24.909740 105.818550,23.806505 
	C104.302803,24.367157 103.213036,24.732494 102.152145,25.168182 
	C76.184837,35.832607 50.221962,46.507847 24.254879,57.172829 
	C17.321812,60.020321 17.316669,60.007801 18.750389,67.602341 
	C19.068163,67.569771 19.417545,67.610794 19.702023,67.493889 
	C47.506294,56.067249 75.277687,44.559536 103.144165,33.286839 
	C106.279366,32.018570 106.494133,30.125719 106.297569,26.653688 
M182.273575,142.374313 
	C182.625336,139.694260 182.977081,137.014206 183.411804,133.702057 
	C180.944580,134.647720 179.254715,135.255676 177.595200,135.937469 
	C151.965454,146.467102 126.341469,157.010773 100.711632,167.540222 
	C94.264366,170.188950 94.257111,170.171295 95.443626,178.113647 
	C124.203285,166.314819 152.882782,154.548874 182.273575,142.374313 
M95.576538,43.056721 
	C71.937500,52.771015 48.369396,62.664650 24.605824,72.064095 
	C19.172388,74.213242 16.713560,76.852081 18.638493,82.903023 
	C20.053970,82.355263 21.574631,81.797668 23.071787,81.182838 
	C48.861172,70.591888 74.648483,59.995876 100.434235,49.396072 
	C107.129280,46.643929 107.126129,46.636265 105.490349,39.039253 
	C102.403473,40.313805 99.355659,41.572231 95.576538,43.056721 
M95.987000,162.688339 
	C123.040199,151.567108 150.011490,140.238525 177.213715,129.494629 
	C182.848099,127.269257 184.175995,124.417137 182.556519,118.954468 
	C181.168060,119.486046 179.794067,119.980240 178.444321,120.533554 
	C152.765076,131.060471 127.159370,141.772919 101.355232,151.983978 
	C95.849243,154.162781 93.644096,156.924408 95.987000,162.688339 
M33.302887,83.818489 
	C29.920185,85.198639 26.534502,86.571533 23.155441,87.960541 
	C17.316988,90.360512 17.318714,90.364708 18.893459,97.247910 
	C20.150881,96.809387 21.406887,96.435936 22.613134,95.941185 
	C48.737099,85.226074 74.794563,74.344337 101.026634,63.901108 
	C106.249969,61.821648 107.178680,59.035683 105.524612,54.091640 
	C81.590446,63.928780 57.793259,73.709618 33.302887,83.818489 
M177.938141,106.126694 
	C152.154007,116.745811 126.426598,127.506752 100.537415,137.863281 
	C95.415344,139.912292 93.519775,142.422211 95.602829,147.790695 
	C122.957680,136.537750 150.203583,125.157227 177.621231,114.206680 
	C182.673889,112.188660 184.261200,109.703285 182.476089,104.538376 
	C181.179901,105.000916 179.954407,105.438225 177.938141,106.126694 
M167.686890,155.155319 
	C145.288864,164.387680 122.956764,173.786133 100.441589,182.723358 
	C95.465240,184.698654 93.579643,187.067307 95.589798,192.440186 
	C97.293808,191.761795 98.968727,191.112549 100.630356,190.430862 
	C126.259628,179.916443 151.822113,169.233780 177.570343,159.019302 
	C182.685410,156.990128 184.037399,154.271957 182.656738,149.096786 
	C177.883209,151.053787 173.151230,152.993744 167.686890,155.155319 
M22.774483,43.325443 
	C17.499208,44.497398 17.495554,48.056625 18.603403,52.613274 
	C20.709879,51.804443 22.556316,51.136642 24.371374,50.392326 
	C50.005589,39.880241 75.586411,29.234962 101.309395,18.944992 
	C106.248703,16.969124 107.302040,14.291257 105.546333,9.374643 
	C78.099319,20.635921 50.800598,31.836355 22.774483,43.325443 
z"/>
<path fill="#FDFDFD" opacity="1.000000" stroke="none" 
	d="
M92.468658,201.000000 
	C123.229507,188.076935 154.459274,175.154510 185.687424,162.228119 
	C186.754089,161.786591 187.804260,161.305206 189.017715,160.774338 
	C189.017715,144.578293 189.017410,128.446701 189.017792,112.315094 
	C189.018356,88.682983 188.937653,65.050270 189.108612,41.419392 
	C189.134216,37.880753 188.017334,36.269772 184.790451,34.836327 
	C160.209457,23.916988 135.732178,12.764171 111.111298,1.342022 
	C140.967072,1.000000 170.934158,1.000000 200.950623,1.000000 
	C200.950623,67.560555 200.950623,134.121155 200.950623,201.000000 
	C164.979736,201.000000 128.958527,201.000000 92.468658,201.000000 
z"/>
<path fill="#FDFDFD" opacity="1.000000" stroke="none" 
	d="
M107.531342,1.000000 
	C96.313713,5.992507 84.666992,11.080241 72.932114,15.955795 
	C54.076870,23.789682 35.200939,31.577459 16.238997,39.147377 
	C12.917914,40.473206 11.885617,42.107071 11.898228,45.639175 
	C12.034305,83.751511 12.045752,121.864792 11.882174,159.976913 
	C11.866178,163.704208 12.954515,165.477600 16.344812,166.982727 
	C39.867233,177.425476 63.290478,188.091675 86.739975,198.698486 
	C87.792458,199.174561 88.791046,199.769775 89.907364,200.654755 
	C60.366135,201.000000 30.732265,201.000000 1.049200,201.000000 
	C1.049200,134.439865 1.049200,67.879700 1.049200,1.000000 
	C36.353584,1.000000 71.708138,1.000000 107.531342,1.000000 
z"/>
<path fill="#FCFCFC" opacity="1.000000" stroke="none" 
	d="
M123.651459,121.731529 
	C113.915634,125.715416 104.564285,129.627991 95.122803,133.309418 
	C93.455940,133.959366 91.109329,134.336563 89.588799,133.670486 
	C67.054451,123.799217 44.606583,113.730530 21.299936,103.334648 
	C31.422585,99.135536 40.853100,95.197990 50.303482,91.308723 
	C68.745468,83.718994 87.179825,76.109749 105.676918,68.656448 
	C107.468231,67.934647 110.009857,67.483627 111.640823,68.195435 
	C133.733490,77.837433 155.727295,87.706009 177.739273,97.532608 
	C178.181259,97.729927 178.547989,98.095825 179.437775,98.731888 
	C160.739960,106.439247 142.372604,114.010384 123.651459,121.731529 
z"/>
<path fill="#FBFBFB" opacity="1.000000" stroke="none" 
	d="
M88.682945,172.999344 
	C88.683083,179.490479 88.683083,185.481842 88.683083,192.581482 
	C64.840065,181.827896 41.522854,171.311447 18.379948,160.873611 
	C18.379948,143.591949 18.379948,126.668243 18.379948,109.242439 
	C20.059620,109.882317 21.414421,110.327705 22.711523,110.903152 
	C43.211079,119.997406 63.662544,129.202133 84.235275,138.127426 
	C87.857986,139.699112 89.064301,141.620422 88.907288,145.529007 
	C88.546593,154.507706 88.723885,163.508011 88.682945,172.999344 
z"/>
<path fill="#FCFCFC" opacity="1.000000" stroke="none" 
	d="
M183.038879,75.996262 
	C183.038879,81.763123 183.038879,87.030891 183.038879,92.970573 
	C169.394211,86.880165 156.380783,81.065933 143.362488,75.262604 
	C134.253418,71.201935 125.094337,67.248558 116.068504,63.010994 
	C114.597763,62.320484 112.712616,60.417351 112.692978,59.050652 
	C112.458931,42.760471 112.542030,26.465740 112.542030,9.586443 
	C114.419853,10.255954 115.658615,10.602226 116.817749,11.125048 
	C137.427704,20.421122 157.988754,29.827410 178.668945,38.964134 
	C182.112854,40.485683 183.196396,42.311478 183.090744,46.014099 
	C182.810516,55.834290 183.022644,65.668526 183.038879,75.996262 
z"/>
<path fill="#F5F5F5" opacity="1.000000" stroke="none" 
	d="
M106.298172,27.090626 
	C106.494133,30.125719 106.279366,32.018570 103.144165,33.286839 
	C75.277687,44.559536 47.506294,56.067249 19.702023,67.493889 
	C19.417545,67.610794 19.068163,67.569771 18.750389,67.602341 
	C17.316669,60.007801 17.321812,60.020321 24.254879,57.172829 
	C50.221962,46.507847 76.184837,35.832607 102.152145,25.168182 
	C103.213036,24.732494 104.302803,24.367157 105.818550,23.806505 
	C106.004158,24.909740 106.150864,25.781715 106.298172,27.090626 
z"/>
<path fill="#F5F5F5" opacity="1.000000" stroke="none" 
	d="
M181.917923,142.578613 
	C152.882782,154.548874 124.203285,166.314819 95.443626,178.113647 
	C94.257111,170.171295 94.264366,170.188950 100.711632,167.540222 
	C126.341469,157.010773 151.965454,146.467102 177.595200,135.937469 
	C179.254715,135.255676 180.944580,134.647720 183.411804,133.702057 
	C182.977081,137.014206 182.625336,139.694260 181.917923,142.578613 
z"/>
<path fill="#F5F5F5" opacity="1.000000" stroke="none" 
	d="
M95.942192,42.943687 
	C99.355659,41.572231 102.403473,40.313805 105.490349,39.039253 
	C107.126129,46.636265 107.129280,46.643929 100.434235,49.396072 
	C74.648483,59.995876 48.861172,70.591888 23.071787,81.182838 
	C21.574631,81.797668 20.053970,82.355263 18.638493,82.903023 
	C16.713560,76.852081 19.172388,74.213242 24.605824,72.064095 
	C48.369396,62.664650 71.937500,52.771015 95.942192,42.943687 
z"/>
<path fill="#F5F5F5" opacity="1.000000" stroke="none" 
	d="
M95.585365,162.624435 
	C93.644096,156.924408 95.849243,154.162781 101.355232,151.983978 
	C127.159370,141.772919 152.765076,131.060471 178.444321,120.533554 
	C179.794067,119.980240 181.168060,119.486046 182.556519,118.954468 
	C184.175995,124.417137 182.848099,127.269257 177.213715,129.494629 
	C150.011490,140.238525 123.040199,151.567108 95.585365,162.624435 
z"/>
<path fill="#F4F4F4" opacity="1.000000" stroke="none" 
	d="
M33.649483,83.654480 
	C57.793259,73.709618 81.590446,63.928780 105.524612,54.091640 
	C107.178680,59.035683 106.249969,61.821648 101.026634,63.901108 
	C74.794563,74.344337 48.737099,85.226074 22.613134,95.941185 
	C21.406887,96.435936 20.150881,96.809387 18.893459,97.247910 
	C17.318714,90.364708 17.316988,90.360512 23.155441,87.960541 
	C26.534502,86.571533 29.920185,85.198639 33.649483,83.654480 
z"/>
<path fill="#F5F5F5" opacity="1.000000" stroke="none" 
	d="
M178.333527,106.001114 
	C179.954407,105.438225 181.179901,105.000916 182.476089,104.538376 
	C184.261200,109.703285 182.673889,112.188660 177.621231,114.206680 
	C150.203583,125.157227 122.957680,136.537750 95.602829,147.790695 
	C93.519775,142.422211 95.415344,139.912292 100.537415,137.863281 
	C126.426598,127.506752 152.154007,116.745811 178.333527,106.001114 
z"/>
<path fill="#F4F4F4" opacity="1.000000" stroke="none" 
	d="
M168.053070,155.044510 
	C173.151230,152.993744 177.883209,151.053787 182.656738,149.096786 
	C184.037399,154.271957 182.685410,156.990128 177.570343,159.019302 
	C151.822113,169.233780 126.259628,179.916443 100.630356,190.430862 
	C98.968727,191.112549 97.293808,191.761795 95.589798,192.440186 
	C93.579643,187.067307 95.465240,184.698654 100.441589,182.723358 
	C122.956764,173.786133 145.288864,164.387680 168.053070,155.044510 
z"/>
<path fill="#F4F4F4" opacity="1.000000" stroke="none" 
	d="
M23.138180,43.181114 
	C50.800598,31.836355 78.099319,20.635921 105.546333,9.374643 
	C107.302040,14.291257 106.248703,16.969124 101.309395,18.944992 
	C75.586411,29.234962 50.005589,39.880241 24.371374,50.392326 
	C22.556316,51.136642 20.709879,51.804443 18.603403,52.613274 
	C17.495554,48.056625 17.499208,44.497398 23.138180,43.181114 
z"/>
</svg>