<svg version="1.1" id="Layer_1" xmlns="http://www.w3.org/2000/svg" xmlns:xlink="http://www.w3.org/1999/xlink" x="0px" y="0px"
	 width="100%" viewBox="0 0 900 899" enable-background="new 0 0 900 899" xml:space="preserve">
<path fill="#EC1B24" opacity="1.000000" stroke="none" 
	d="
M501.000000,900.000000 
	C334.000000,900.000000 167.500000,900.000000 1.000000,900.000000 
	C1.000000,600.333313 1.000000,300.666656 1.000000,1.000000 
	C301.000000,1.000000 601.000000,1.000000 901.000000,1.000000 
	C901.000000,300.666656 901.000000,600.333313 901.000000,900.000000 
	C767.833313,900.000000 634.666687,900.000000 501.000000,900.000000 
M498.409698,258.499725 
	C498.409698,270.453186 498.409698,282.406647 498.409698,294.490662 
	C510.738220,294.490662 522.451538,294.490662 534.316284,294.490662 
	C534.316284,219.250717 534.316284,144.345734 534.316284,69.408569 
	C522.269348,69.408569 510.545715,69.408569 498.254944,69.408569 
	C498.254944,100.464325 498.254944,131.187073 498.254944,161.969269 
	C462.757324,161.969269 427.833374,161.969269 392.396179,161.969269 
	C392.396179,130.949554 392.396179,100.197479 392.396179,69.384636 
	C380.143738,69.384636 368.408325,69.384636 356.137695,69.384636 
	C356.137695,100.422752 356.137695,131.151794 356.137695,161.946655 
	C320.867249,161.946655 286.136841,161.946655 250.929459,161.946655 
	C250.929459,130.917282 250.929459,100.179810 250.929459,69.485382 
	C238.743713,69.485382 227.041061,69.485382 215.134094,69.485382 
	C215.134094,71.723770 215.134094,73.547859 215.134094,75.371948 
	C215.133987,119.367607 215.181259,163.363373 215.082962,207.358826 
	C215.068130,214.003784 214.720764,220.688614 213.931320,227.283676 
	C211.486633,247.706528 200.114883,261.431396 182.101242,265.721436 
	C170.129562,268.572540 158.061188,268.650085 145.930298,266.299164 
	C127.990173,262.822449 116.724953,252.243164 112.894852,234.528030 
	C111.080826,226.137741 110.223389,217.388458 110.173164,208.794571 
	C109.912155,164.133820 110.050934,119.470757 110.050476,74.808502 
	C110.050461,73.030151 110.050476,71.251801 110.050476,69.314941 
	C97.757744,69.314941 86.011414,69.314941 73.998657,69.314941 
	C73.908699,70.997681 73.763161,72.453560 73.762848,73.909462 
	C73.752594,121.738075 73.712547,169.566772 73.811867,217.395187 
	C73.824631,223.539078 74.156799,229.742523 75.050003,235.814072 
	C79.173592,263.844177 93.960838,283.460876 121.447166,292.064880 
	C147.372299,300.180237 173.693069,300.406433 199.700714,292.655182 
	C224.294998,285.325165 241.125793,269.222992 247.339874,244.057144 
	C250.095200,232.898651 250.043304,221.021011 250.957001,209.445465 
	C251.369232,204.223145 251.026871,198.941269 251.026871,193.853058 
	C286.483978,193.853058 321.205139,193.853058 356.445831,193.853058 
	C356.445831,227.661316 356.445831,261.065887 356.445831,294.641968 
	C368.583252,294.641968 380.197357,294.641968 392.523132,294.641968 
	C392.523132,260.926605 392.523132,227.386215 392.523132,193.786530 
	C428.133362,193.786530 463.030823,193.786530 498.409760,193.786530 
	C498.409760,215.248489 498.409760,236.374084 498.409698,258.499725 
M822.007446,795.424255 
	C814.144470,764.549500 808.782104,733.239319 806.162659,701.494202 
	C805.772949,696.771606 804.878174,695.094299 799.640259,695.106567 
	C715.308350,695.303955 630.975952,695.245972 546.643616,695.245972 
	C544.841187,695.245972 543.038818,695.245972 540.712646,695.245972 
	C536.765442,750.516052 524.175110,803.580078 505.531494,855.507080 
	C548.099670,855.507080 589.978760,855.507080 632.976257,855.507080 
	C632.976257,832.148071 632.678772,809.151184 633.064697,786.165771 
	C633.411499,765.510803 651.259766,748.374207 671.905396,748.068604 
	C695.193359,747.723938 712.946228,764.994019 713.271484,788.805481 
	C713.551514,809.301453 713.335449,829.804138 713.338623,850.303894 
	C713.338928,852.071289 713.338684,853.838684 713.338684,855.617676 
	C756.013000,855.617676 797.932739,855.617676 839.759949,855.617676 
	C833.845459,835.681152 827.994690,815.959534 822.007446,795.424255 
M542.010986,643.498230 
	C542.010986,649.106995 542.010986,654.715698 542.010986,660.932617 
	C535.071838,660.932617 528.690369,660.932617 522.389832,660.932617 
	C522.389832,666.810242 522.389832,672.058655 522.389832,677.525391 
	C623.097107,677.525391 723.496460,677.525391 824.233521,677.525391 
	C824.233521,671.926392 824.233521,666.536804 824.233521,660.561279 
	C817.387207,660.561279 810.814941,660.561279 803.870911,660.561279 
	C803.870911,626.884705 803.870911,593.790344 803.870911,560.519043 
	C783.400269,560.519043 763.325623,560.519043 742.597534,560.519043 
	C742.597534,593.990051 742.597534,627.194580 742.597534,660.346680 
	C730.050720,660.346680 718.161926,660.346680 706.397827,660.346680 
	C706.397827,626.040283 706.397827,592.134399 706.397827,557.757446 
	C711.815796,557.757446 716.897156,557.757446 721.804443,557.757446 
	C721.804443,552.175903 721.804443,547.073059 721.804443,541.510498 
	C717.420654,541.510498 713.335388,541.510498 709.125488,541.510498 
	C706.926392,522.879272 698.822754,509.278687 680.131592,504.683807 
	C680.131592,498.530060 680.131592,492.933014 680.131592,486.867889 
	C684.471375,486.867889 688.555298,486.867889 692.720215,486.867889 
	C692.720215,482.631805 692.720215,478.876556 692.720215,474.597168 
	C688.403503,474.597168 684.324463,474.597168 679.907349,474.597168 
	C679.907349,469.448730 679.907349,464.821686 679.907349,459.877930 
	C675.142151,459.877930 670.724915,459.877930 665.782043,459.877930 
	C665.782043,464.787537 665.782043,469.531982 665.782043,474.754822 
	C661.187134,474.754822 657.098877,474.754822 652.865356,474.754822 
	C652.865356,479.043671 652.865356,482.820831 652.865356,487.169678 
	C657.322449,487.169678 661.543091,487.169678 665.741211,487.169678 
	C665.741211,493.378052 665.741211,499.011414 665.741211,504.574829 
	C646.545410,511.322052 641.800964,517.412903 637.043274,541.714905 
	C632.803711,541.714905 628.411560,541.714905 623.949890,541.714905 
	C623.949890,547.429504 623.949890,552.507019 623.949890,558.136292 
	C629.255859,558.136292 634.314453,558.136292 639.168335,558.136292 
	C639.168335,592.580566 639.168335,626.467102 639.168335,660.486023 
	C626.977539,660.486023 615.222839,660.486023 602.907104,660.486023 
	C602.907104,627.021729 602.907104,593.812378 602.907104,560.643127 
	C582.301270,560.643127 562.260803,560.643127 542.010986,560.643127 
	C542.010986,588.192932 542.010986,615.346008 542.010986,643.498230 
M587.939636,518.515564 
	C589.037048,516.542908 590.134460,514.570190 591.988037,511.238281 
	C581.281372,514.431091 575.788696,509.664917 572.893677,500.548553 
	C570.236084,504.742706 568.826233,509.284393 565.786194,511.106689 
	C562.812683,512.889160 558.177124,511.898926 552.859436,512.207764 
	C560.749023,519.438721 559.687073,526.622803 553.462830,534.151245 
	C563.895996,531.541260 569.448486,535.940552 572.663696,545.183105 
	C575.527222,535.405884 581.749634,531.825562 592.051697,534.480957 
	C590.043945,530.972229 589.025024,528.686829 587.553833,526.743896 
	C585.554626,524.103516 585.346741,521.703125 587.939636,518.515564 
M791.705505,512.912476 
	C791.261292,512.573120 790.734863,511.868896 790.384827,511.947693 
	C781.465454,513.956055 776.489441,509.676575 773.781799,501.681824 
	C773.739014,501.555481 773.567871,501.472595 772.801208,500.761536 
	C770.921448,510.886017 764.386169,513.851440 754.411438,511.472198 
	C756.616028,516.007629 759.592712,519.414490 759.546570,522.780029 
	C759.497803,526.339600 756.571167,529.859680 754.394958,534.470520 
	C764.348999,531.998901 770.876526,534.885315 773.501770,545.284302 
	C775.679016,534.128906 782.942871,532.483215 793.589294,534.518860 
	C786.534058,526.841370 785.993164,520.288147 791.705505,512.912476 
z"/>
<path fill="#FFFDFD" opacity="1.000000" stroke="none" 
	d="
M498.409729,257.999695 
	C498.409760,236.374084 498.409760,215.248489 498.409760,193.786530 
	C463.030823,193.786530 428.133362,193.786530 392.523132,193.786530 
	C392.523132,227.386215 392.523132,260.926605 392.523132,294.641968 
	C380.197357,294.641968 368.583252,294.641968 356.445831,294.641968 
	C356.445831,261.065887 356.445831,227.661316 356.445831,193.853058 
	C321.205139,193.853058 286.483978,193.853058 251.026871,193.853058 
	C251.026871,198.941269 251.369232,204.223145 250.957001,209.445465 
	C250.043304,221.021011 250.095200,232.898651 247.339874,244.057144 
	C241.125793,269.222992 224.294998,285.325165 199.700714,292.655182 
	C173.693069,300.406433 147.372299,300.180237 121.447166,292.064880 
	C93.960838,283.460876 79.173592,263.844177 75.050003,235.814072 
	C74.156799,229.742523 73.824631,223.539078 73.811867,217.395187 
	C73.712547,169.566772 73.752594,121.738075 73.762848,73.909462 
	C73.763161,72.453560 73.908699,70.997681 73.998657,69.314941 
	C86.011414,69.314941 97.757744,69.314941 110.050476,69.314941 
	C110.050476,71.251801 110.050461,73.030151 110.050476,74.808502 
	C110.050934,119.470757 109.912155,164.133820 110.173164,208.794571 
	C110.223389,217.388458 111.080826,226.137741 112.894852,234.528030 
	C116.724953,252.243164 127.990173,262.822449 145.930298,266.299164 
	C158.061188,268.650085 170.129562,268.572540 182.101242,265.721436 
	C200.114883,261.431396 211.486633,247.706528 213.931320,227.283676 
	C214.720764,220.688614 215.068130,214.003784 215.082962,207.358826 
	C215.181259,163.363373 215.133987,119.367607 215.134094,75.371948 
	C215.134094,73.547859 215.134094,71.723770 215.134094,69.485382 
	C227.041061,69.485382 238.743713,69.485382 250.929459,69.485382 
	C250.929459,100.179810 250.929459,130.917282 250.929459,161.946655 
	C286.136841,161.946655 320.867249,161.946655 356.137695,161.946655 
	C356.137695,131.151794 356.137695,100.422752 356.137695,69.384636 
	C368.408325,69.384636 380.143738,69.384636 392.396179,69.384636 
	C392.396179,100.197479 392.396179,130.949554 392.396179,161.969269 
	C427.833374,161.969269 462.757324,161.969269 498.254944,161.969269 
	C498.254944,131.187073 498.254944,100.464325 498.254944,69.408569 
	C510.545715,69.408569 522.269348,69.408569 534.316284,69.408569 
	C534.316284,144.345734 534.316284,219.250717 534.316284,294.490662 
	C522.451538,294.490662 510.738220,294.490662 498.409698,294.490662 
	C498.409698,282.406647 498.409698,270.453186 498.409729,257.999695 
z"/>
<path fill="#FFFEFE" opacity="1.000000" stroke="none" 
	d="
M822.075684,795.831055 
	C827.994690,815.959534 833.845459,835.681152 839.759949,855.617676 
	C797.932739,855.617676 756.013000,855.617676 713.338684,855.617676 
	C713.338684,853.838684 713.338928,852.071289 713.338623,850.303894 
	C713.335449,829.804138 713.551514,809.301453 713.271484,788.805481 
	C712.946228,764.994019 695.193359,747.723938 671.905396,748.068604 
	C651.259766,748.374207 633.411499,765.510803 633.064697,786.165771 
	C632.678772,809.151184 632.976257,832.148071 632.976257,855.507080 
	C589.978760,855.507080 548.099670,855.507080 505.531494,855.507080 
	C524.175110,803.580078 536.765442,750.516052 540.712646,695.245972 
	C543.038818,695.245972 544.841187,695.245972 546.643616,695.245972 
	C630.975952,695.245972 715.308350,695.303955 799.640259,695.106567 
	C804.878174,695.094299 805.772949,696.771606 806.162659,701.494202 
	C808.782104,733.239319 814.144470,764.549500 822.075684,795.831055 
z"/>
<path fill="#FFFEFE" opacity="1.000000" stroke="none" 
	d="
M542.010986,642.998657 
	C542.010986,615.346008 542.010986,588.192932 542.010986,560.643127 
	C562.260803,560.643127 582.301270,560.643127 602.907104,560.643127 
	C602.907104,593.812378 602.907104,627.021729 602.907104,660.486023 
	C615.222839,660.486023 626.977539,660.486023 639.168335,660.486023 
	C639.168335,626.467102 639.168335,592.580566 639.168335,558.136292 
	C634.314453,558.136292 629.255859,558.136292 623.949890,558.136292 
	C623.949890,552.507019 623.949890,547.429504 623.949890,541.714905 
	C628.411560,541.714905 632.803711,541.714905 637.043274,541.714905 
	C641.800964,517.412903 646.545410,511.322052 665.741211,504.574829 
	C665.741211,499.011414 665.741211,493.378052 665.741211,487.169678 
	C661.543091,487.169678 657.322449,487.169678 652.865356,487.169678 
	C652.865356,482.820831 652.865356,479.043671 652.865356,474.754822 
	C657.098877,474.754822 661.187134,474.754822 665.782043,474.754822 
	C665.782043,469.531982 665.782043,464.787537 665.782043,459.877930 
	C670.724915,459.877930 675.142151,459.877930 679.907349,459.877930 
	C679.907349,464.821686 679.907349,469.448730 679.907349,474.597168 
	C684.324463,474.597168 688.403503,474.597168 692.720215,474.597168 
	C692.720215,478.876556 692.720215,482.631805 692.720215,486.867889 
	C688.555298,486.867889 684.471375,486.867889 680.131592,486.867889 
	C680.131592,492.933014 680.131592,498.530060 680.131592,504.683807 
	C698.822754,509.278687 706.926392,522.879272 709.125488,541.510498 
	C713.335388,541.510498 717.420654,541.510498 721.804443,541.510498 
	C721.804443,547.073059 721.804443,552.175903 721.804443,557.757446 
	C716.897156,557.757446 711.815796,557.757446 706.397827,557.757446 
	C706.397827,592.134399 706.397827,626.040283 706.397827,660.346680 
	C718.161926,660.346680 730.050720,660.346680 742.597534,660.346680 
	C742.597534,627.194580 742.597534,593.990051 742.597534,560.519043 
	C763.325623,560.519043 783.400269,560.519043 803.870911,560.519043 
	C803.870911,593.790344 803.870911,626.884705 803.870911,660.561279 
	C810.814941,660.561279 817.387207,660.561279 824.233521,660.561279 
	C824.233521,666.536804 824.233521,671.926392 824.233521,677.525391 
	C723.496460,677.525391 623.097107,677.525391 522.389832,677.525391 
	C522.389832,672.058655 522.389832,666.810242 522.389832,660.932617 
	C528.690369,660.932617 535.071838,660.932617 542.010986,660.932617 
	C542.010986,654.715698 542.010986,649.106995 542.010986,642.998657 
z"/>
<path fill="#FFFBFC" opacity="1.000000" stroke="none" 
	d="
M587.732605,518.841492 
	C585.346741,521.703125 585.554626,524.103516 587.553833,526.743896 
	C589.025024,528.686829 590.043945,530.972229 592.051697,534.480957 
	C581.749634,531.825562 575.527222,535.405884 572.663696,545.183105 
	C569.448486,535.940552 563.895996,531.541260 553.462830,534.151245 
	C559.687073,526.622803 560.749023,519.438721 552.859436,512.207764 
	C558.177124,511.898926 562.812683,512.889160 565.786194,511.106689 
	C568.826233,509.284393 570.236084,504.742706 572.893677,500.548553 
	C575.788696,509.664917 581.281372,514.431091 591.988037,511.238281 
	C590.134460,514.570190 589.037048,516.542908 587.732605,518.841492 
z"/>
<path fill="#FFFCFC" opacity="1.000000" stroke="none" 
	d="
M791.525635,513.269836 
	C785.993164,520.288147 786.534058,526.841370 793.589294,534.518860 
	C782.942871,532.483215 775.679016,534.128906 773.501770,545.284302 
	C770.876526,534.885315 764.348999,531.998901 754.394958,534.470520 
	C756.571167,529.859680 759.497803,526.339600 759.546570,522.780029 
	C759.592712,519.414490 756.616028,516.007629 754.411438,511.472198 
	C764.386169,513.851440 770.921448,510.886017 772.801208,500.761536 
	C773.567871,501.472595 773.739014,501.555481 773.781799,501.681824 
	C776.489441,509.676575 781.465454,513.956055 790.384827,511.947693 
	C790.734863,511.868896 791.261292,512.573120 791.525635,513.269836 
z"/>
</svg>