<svg height="512" viewBox="0 0 384 512" width="384" xmlns="http://www.w3.org/2000/svg"><path d="m252.87863 446.32417-94.22263 25.24667c-6.71285 1.79819-13.67627-2.22149-15.47496-8.9344-1.79821-6.71279 2.22153-13.67624 8.93439-15.47492l94.22265-25.24667c6.71286-1.79819 13.67628 2.22154 15.47495 8.9344 1.80018 6.7129-2.22153 13.67624-8.9344 15.47492zm-43.62541-289.55802c-.84422 11.48574-7.34147 17.95936-17.42823 17.79545-10.04344-.16199-17.3524-7.04413-17.1112-17.52518.2338-10.19851 6.62867-16.89708 17.5055-16.77845 10.86993.11701 16.25814 6.54008 17.03393 16.50818zm120.7945-38.71028c-37.48266-61.908209-111.72277-91.986861-180.69383-71.834985-60.358594 17.634944-99.713242 57.490715-114.023535 118.781655-14.16409 60.66627 3.465461 112.84605 48.084268 156.54533 10.464808 10.24874 20.085397 22.66333 25.984567 35.90938 5.91393 13.27857 7.80959 17.43169 22.21488 13.94458 20.00615-4.84083 39.74403-10.78726 59.74625-15.6458 10.25412-2.49129 14.1498-8.21621 14.08138-18.5535-.27368-41.72043-.18164-83.44283-.0306-125.16373.034-9.44387-2.93432-17.21952-13.09492-17.45531-10.28662-.23917-13.43507 7.27651-13.34892 16.90448.23774 27.0488.0719 54.10057.0704 81.14941-.002 43.51515 0 43.51515-42.78813 49.76777-16.26504-18.63771-31.07743-35.39251-45.65206-52.35113-52.311245-60.86612-42.744794-150.8421 22.54273-197.44322 46.90335-33.481061 97.29038-35.344257 147.52432-7.075126 46.64439 26.249386 72.0206 80.330286 65.29492 132.645446-4.4933 34.94802-21.18166 62.84449-45.93315 86.82557-14.9384 14.47374-28.55017 30.05502-33.45006 50.98267-2.29195 9.78798-7.78055 14.64307-17.26233 16.97979 1.77162-1.64707-102.20159 27.48597-102.20159 27.48597-6.57798 1.76224-10.51699 8.5854-8.75472 15.16333l.27175 1.017c1.76226 6.5765 8.58538 10.517 15.16336 8.75472 0 0 119.29999-32.05849 120.86438-32.50149 11.04812-3.04951 17.06097-10.91472 17.31303-22.14107.37606-16.75828 7.65795-29.80298 19.5075-40.93725 6.34413-5.96218 12.66122-11.97701 18.63081-18.30642 49.276-52.26299 57.40804-131.56152 19.93968-193.44855z" stroke-width=".07718"/></svg>